<?xml version="1.0" encoding="utf-8"?>
<!-- Generator: Adobe Illustrator 22.0.1, SVG Export Plug-In . SVG Version: 6.00 Build 0)  -->
<svg version="1.1" id="Layer_1" xmlns="http://www.w3.org/2000/svg" xmlns:xlink="http://www.w3.org/1999/xlink" x="0px" y="0px"
	 viewBox="0 0 584.8 78.5" style="enable-background:new 0 0 584.8 78.5;" xml:space="preserve">
<style type="text/css">
	.st0{fill:#E40521;}
	.st1{fill:#FFFFFF;}
</style>
<g>
	<path class="st0" d="M39,1C18,1,1,18,1,39s17,38,38,38s38-16.9,38-38S60.1,1,39,1L39,1z"/>
	<path class="st1" d="M39,76.6C18.3,76.6,1.5,59.8,1.5,39S18.2,1.5,39,1.5c20.7,0,37.6,16.8,37.6,37.6S59.8,76.6,39,76.6L39,76.6z"
		/>
	<path class="st0" d="M39,69.3c16.7,0,30.2-13.6,30.2-30.2S55.7,8.8,39,8.8C22.3,8.8,8.8,22.3,8.8,39C8.8,55.7,22.3,69.3,39,69.3
		L39,69.3z"/>
	<path class="st1" d="M39,39c-13.4-5.6-7.5-23,5.3-22.2c-2.6,1.4-3,3.8-1.5,6.1c1.6,2.6-0.2,6.7-2.4,7.7C36.8,32.3,36,36.7,39,39
		L39,39z"/>
	<path class="st1" d="M39,39C29.6,50,14.8,39,19.6,27.1c0.5,2.9,2.7,4,5.3,3.3c3-0.8,6.3,2.2,6.6,4.6C32,39,36,41.1,39,39L39,39z"/>
	<path class="st1" d="M39,39c7.5,12.4-7.6,23-17.3,14.8c2.9,0.5,4.6-1.4,4.7-4.1c0.2-3.1,4.1-5.3,6.5-4.8C36.8,45.7,40,42.6,39,39
		L39,39z"/>
	<path class="st1" d="M39,39c14.1-3.3,19.6,14.2,8.7,21.1c1.4-2.6,0.2-4.8-2.4-5.8c-2.8-1.1-3.8-5.5-2.6-7.6
		C44.8,43.1,42.7,39.1,39,39L39,39z"/>
	<path class="st1" d="M39,39c1.3-14.4,19.7-14.2,22.8-1.7c-2-2-4.6-1.6-6.3,0.5c-1.9,2.3-6.4,1.9-8,0.1C44.8,34.9,40.3,35.5,39,39
		L39,39z"/>
	<polygon class="st0" points="38.3,26.5 37.5,27.6 37.3,26.3 36,25.9 37.1,25.2 37,23.8 38.1,24.8 39.3,24.2 38.8,25.5 39.7,26.7 	
		"/>
	<polygon class="st0" points="26.8,35.9 27.7,36.9 26.4,36.7 25.6,37.9 25.3,36.5 23.9,36.1 25.2,35.5 25.1,34.1 26.1,35.1 
		27.4,34.6 	"/>
	<polygon class="st0" points="32.2,49.6 33.5,49.1 32.9,50.4 33.8,51.4 32.5,51.2 31.7,52.5 31.4,51.1 30,50.8 31.3,50.1 31.2,48.6 
			"/>
	<polygon class="st0" points="47,48.7 46.9,47.4 48,48.3 49.2,47.8 48.6,49.1 49.5,50.2 48.1,50 47.4,51.2 47.1,49.8 45.7,49.4 	"/>
	<polygon class="st0" points="50.8,34.4 49.4,34.1 50.6,33.4 50.6,32 51.5,32.9 52.9,32.5 52.3,33.7 53.2,34.8 51.7,34.6 51.1,35.9 
			"/>
	<path class="st0" d="M39,38.9c-1.6-0.9-2.9-2.5-3.5-4.6c-0.7-2.3-0.3-4.9,1.1-7L36.3,27c-1.4,2.1-1.7,4.7-1.1,7.3
		c0.6,2.2,1.9,4,3.7,4.8L39,38.9L39,38.9z"/>
	<path class="st0" d="M38.9,38.9c-1.3,1.3-3.3,2-5.5,1.8c-2.3,0-4.6-1.2-6.2-3l-0.3,0.2c1.6,1.9,4.1,3.1,6.6,3.3
		c2.2,0.1,4.4-0.6,5.7-1.9L38.9,38.9L38.9,38.9z"/>
	<path class="st0" d="M38.9,39c0.8,1.6,0.9,3.8,0.1,5.8c-0.9,2.3-2.7,4.2-4.9,5l0.1,0.3c2.3-1,4.3-2.8,5.1-5.2
		c0.8-2.1,0.8-4.4-0.1-6.1L38.9,39L38.9,39z"/>
	<path class="st0" d="M39,39.1c1.8-0.3,3.9,0.4,5.5,1.6c1.9,1.5,3.1,3.8,3.3,6.3h0.3c-0.2-2.5-1.5-4.9-3.4-6.5
		c-1.7-1.5-3.9-2-5.8-1.7L39,39.1L39,39.1z"/>
	<path class="st0" d="M49.5,32.8c-2.4-0.6-5.1-0.2-7.3,1.3c-1.9,1.3-3.2,3.1-3.5,4.9L39,39c0.3-1.8,1.5-3.6,3.3-4.7
		c2-1.4,4.6-1.7,7-1.2L49.5,32.8L49.5,32.8z"/>
	<polygon class="st0" points="12.1,58.6 12.9,59.8 11.6,59.5 10.7,60.5 10.5,59.2 9.2,58.7 10.5,58.1 10.6,56.8 11.5,57.8 
		12.8,57.4 	"/>
	<polygon class="st0" points="66.1,58.6 65.3,59.8 66.6,59.5 67.5,60.6 67.6,59.2 69,58.7 67.7,58.2 67.6,56.8 66.7,57.8 65.4,57.4 
			"/>
	<path class="st0" d="M16.6,67.3c0.5,0.3,0.6,0.2,0.9-0.2l1.7-2.4c0.3-0.4,0.3-0.5-0.1-0.9l0.1-0.1l1.5,1.1l-0.1,0.1
		c-0.5-0.3-0.6-0.3-0.9,0.2L19,66.2l1.7,1.2l0.8-1.1c0.3-0.4,0.3-0.5-0.1-0.9l0.1-0.1l1.5,1.1L23,66.4c-0.5-0.3-0.6-0.3-0.9,0.2
		l-1.7,2.5c-0.3,0.4-0.3,0.5,0.1,0.9l-0.1,0.1l-1.5-1.1l0.1-0.1c0.5,0.3,0.6,0.2,0.9-0.2l0.8-1.1l-1.7-1.2L18,67.7
		c-0.3,0.4-0.3,0.5,0.1,0.9L18,68.7L16.6,67.3L16.6,67.3L16.6,67.3z"/>
	<path class="st0" d="M22.7,68.9c0.7-1.5,2-1.7,3.1-1.3c1.1,0.5,1.7,1.6,1.1,3.1c-0.6,1.4-1.9,1.7-3,1.2
		C22.6,71.5,22,70.2,22.7,68.9L22.7,68.9z M26.1,70.4c0.7-1.5,0.2-2.2-0.4-2.5c-0.7-0.3-1.5-0.1-2.2,1.4c-0.7,1.4-0.3,2.2,0.5,2.5
		C24.5,72.1,25.4,71.8,26.1,70.4L26.1,70.4z"/>
	<path class="st0" d="M32.9,70.2c-0.4-0.1-0.7-0.1-0.9,0.7l-1,3.5H31l-1.9-4.5l0,0l-0.7,2.7c-0.2,0.7-0.1,0.9,0.4,1.1v0.1l-1.6-0.5
		v-0.1c0.5,0.1,0.7,0,0.9-0.7l0.8-2.9c-0.2-0.4-0.3-0.5-0.6-0.6V69l1.2,0.3l1.7,3.9l0,0l0.6-2.2c0.2-0.8,0-0.9-0.4-1.1v-0.1
		L32.9,70.2L32.9,70.2L32.9,70.2z"/>
	<path class="st0" d="M38.2,72.8c-0.3,0-0.5,0-0.5,0.5l-0.1,1.4c0,0.1-1,0.4-1.7,0.4c-0.7-0.1-1.5-0.3-1.8-0.9
		c-0.3-0.4-0.5-0.9-0.5-1.7c0.1-1.2,1.1-2.2,2.5-2.1c0.7,0.1,1,0.3,1.3,0.3c0.1,0,0.3,0,0.4-0.2h0.2l-0.1,1.5h-0.2
		c-0.2-0.5-0.5-1.3-1.5-1.3c-0.7-0.1-1.7,0.3-1.8,2c-0.1,1.3,0.6,2.1,1.6,2.1c0.5,0,1-0.1,1-0.3l0.1-1.2c0-0.6-0.1-0.6-0.6-0.7v-0.1
		l1.7,0.1V72.8L38.2,72.8z"/>
	<path class="st0" d="M43.8,70.2l1.8-0.2v0.1c-0.4,0.1-0.6,0.1-1,0.7l-1.2,1.5l1.8,1.5c0.5,0.5,0.8,0.7,1.2,0.6v0.1l-2.1,0.3v-0.1
		c0.4-0.1,0.5-0.1,0.5-0.2c0-0.2-0.8-0.9-1.1-1.1L43,72.8L42.8,73l0.2,1.3c0.1,0.5,0.2,0.6,0.7,0.6V75l-1.9,0.3v-0.1
		c0.5-0.1,0.6-0.2,0.5-0.8l-0.4-3c0-0.7-0.2-0.8-0.7-0.7v-0.1l1.9-0.3v0.1c-0.5,0.1-0.6,0.2-0.6,0.7l0.2,1.5c1.4-1.5,1.5-1.8,1.5-2
		C44.3,70.3,44.1,70.3,43.8,70.2L43.8,70.2L43.8,70.2z"/>
	<path class="st0" d="M46.7,72.1c-0.5-1.5,0.4-2.6,1.5-2.9c1.1-0.3,2.4,0.1,2.8,1.6c0.4,1.5-0.3,2.5-1.5,2.9
		C48.3,74.1,47.1,73.5,46.7,72.1L46.7,72.1z M50.3,71c-0.5-1.5-1.4-1.8-2-1.6c-0.7,0.2-1.3,1-0.8,2.4c0.4,1.5,1.3,1.8,2,1.6
		C50.2,73.2,50.7,72.4,50.3,71L50.3,71z"/>
	<path class="st0" d="M55.3,66.4c-0.4,0.2-0.6,0.4-0.2,1.1l1.6,3.3h-0.1l-4.5-2l0,0l1.2,2.4c0.3,0.7,0.5,0.7,1,0.5l0.1,0.1L53,72.4
		l-0.1-0.1c0.5-0.3,0.6-0.4,0.2-1.1l-1.4-2.7c-0.4-0.2-0.5-0.2-0.8,0l-0.1-0.1l1.1-0.5l3.9,1.7l0,0l-1.1-2c-0.4-0.7-0.6-0.7-1-0.5
		l-0.1-0.1l1.5-0.8L55.3,66.4L55.3,66.4z"/>
	<path class="st0" d="M60.9,64.9c-0.2,0.2-0.4,0.3-0.1,0.7l0.9,1.1c0.1,0.1-0.5,1-1.1,1.5c-0.6,0.4-1.3,0.7-2,0.6
		c-0.6-0.1-1-0.3-1.5-1.1c-0.7-1-0.7-2.4,0.5-3.3c0.6-0.4,1-0.4,1.2-0.6c0,0,0.2-0.2,0.1-0.4l0.1-0.1l0.9,1.2l-0.1,0.1
		c-0.5-0.3-1.2-0.6-1.9,0c-0.5,0.4-1.1,1.4,0,2.7c0.8,1,1.8,1.2,2.6,0.6c0.4-0.3,0.7-0.7,0.5-0.9l-0.7-0.9c-0.4-0.5-0.5-0.4-0.9-0.1
		l0.1-0.1L60.9,64.9L60.9,64.9L60.9,64.9z"/>
	<path class="st0" d="M9.1,48.3c0-0.1-0.1-0.2-0.2-0.3c-0.1-0.2-0.2-0.2-0.2-0.2s-0.1,0-0.2,0l-0.7,0.2l-1.1,0.3l0,0l0,0l-0.3-1l0,0
		l0,0l0.3-0.1c0.1,0,0.1-0.1,0.1-0.2c0-0.1-0.1-0.2-0.2-0.3c-0.1-0.3-0.2-0.3-0.3-0.3l-0.7,0.2l-0.6,0.2c-0.1,0-0.3,0-0.4-0.1
		c0,0,0,0-0.1,0c0,0,0,0-0.1,0.1l-0.2,0.6v0.1c0,0,0,0,0.1,0.1l0.4,0.2l0,0l0,0l0.3,1l0,0l0,0L4.5,49c-0.1,0-0.2,0-0.3-0.1
		c0,0,0,0-0.1,0l0,0v1c0.1-0.1,0.3-0.1,0.6-0.2l0.8-0.2l0,0l0,0l0.2,0.9l0,0l0,0l-0.1,1c0.2-0.1,0.5-0.2,0.7-0.3l1.1-0.3l0.8-0.2
		h0.1c0,0,0,0,0-0.1S8.1,50.3,8,50.2C7.9,50,7.8,50,7.8,50s-0.1,0-0.2,0l-0.2,0.1l0,0l0,0l-0.3-1l0,0l0,0l1.1-0.3l1-0.2
		C9.1,48.4,9.1,48.4,9.1,48.3C9.1,48.4,9.1,48.3,9.1,48.3L9.1,48.3z M5.4,48.8L5.4,48.8L5.4,48.8l-0.3-1.1l0,0l0,0l1.4-0.4l0,0l0,0
		l0.3,1l0,0l0,0L5.4,48.8L5.4,48.8z M7.2,50L7.2,50L7.2,50l-1.4,0.5l0,0l0,0l-0.3-1l0,0l0,0l1.4-0.4l0,0l0,0L7.2,50L7.2,50z"/>
	<path class="st1" d="M3.4,41.6L3.4,41.6C3.4,41.7,3.4,41.7,3.4,41.6L3.4,41.6L3.4,41.6z"/>
	<path class="st0" d="M5.9,41.4L5.9,41.4L5.9,41.4L5.9,41.4L5.9,41.4z"/>
	<path class="st1" d="M6.7,41.6L6.7,41.6C6.7,41.7,6.7,41.7,6.7,41.6L6.7,41.6L6.7,41.6z"/>
	<path class="st1" d="M5.2,41.9L5.2,41.9C5.1,41.9,5.1,41.9,5.2,41.9L5.2,41.9L5.2,41.9z"/>
	<path class="st0" d="M4.3,41.4L4.3,41.4L4.3,41.4L4.3,41.4L4.3,41.4z"/>
	<polygon class="st0" points="2.7,39.5 2.7,39.5 2.7,39.5 2.7,39.5 	"/>
	<polygon class="st0" points="2.7,39.5 2.7,39.5 2.7,39.5 2.7,39.5 	"/>
	<polygon class="st0" points="3.2,36.7 3.2,36.7 3.2,36.7 3.2,36.7 	"/>
	<path class="st0" d="M3.9,38.9C3.9,38.9,4,38.9,3.9,38.9c0.1-0.2,0.1-0.3,0-0.4c0-0.1-0.1-0.2-0.1-0.2l-0.1-0.1H3.4l0,0l0,0v-1.5
		l0,0l0,0c0,0,0,0-0.1,0l-0.4,0.6c0,0,0,0,0,0.1c0,0,0,0,0,0.1l0.4,0.3l0,0l0,0v0.5l0,0l0,0H2.9l0,0l0,0l-0.1-0.2c0,0,0,0-0.1,0
		c0,0,0,0-0.1,0L2.4,39c0.1,0,0.5,0,0.5,0h0.4l0,0l0,0v0.7l0,0l0,0H2.8l0,0l0,0c-0.1-0.1-0.1-0.2-0.1-0.2l0,0H2.6l-0.2,0.9
		c0.1,0,0.5,0,0.5,0h0.4l0,0l0,0v1.5l0.2-0.2c0-0.2-0.1-0.3-0.1-0.4v-0.9l0,0l0,0h0.3H4l0,0c0,0,0,0,0-0.1c0-0.1,0-0.2-0.1-0.3
		c-0.1-0.2-0.1-0.2-0.1-0.3H3.7H3.4l0,0l0,0V39l0,0l0,0L3.9,38.9L3.9,38.9z"/>
	<polygon class="st0" points="2.6,38 2.6,38 2.6,38 2.6,38 	"/>
	<polygon class="st0" points="4.9,36.5 4.9,36.5 4.9,36.5 4.9,36.5 	"/>
	<path class="st0" d="M7.8,39.1c0-0.1-0.1-0.3-0.2-0.3H7.1H6.6l0,0l0,0v-2.3l0,0c0,0,0,0-0.1,0L6,37c0,0,0,0,0,0.1c0,0,0,0,0,0.1
		l0.4,0.4l0,0l0,0v1.3l0,0l0,0H5.8l0,0l0,0v-2l0,0l0,0c0,0,0,0-0.1,0l-0.4,0.5v0.1c0,0,0,0,0,0.1l0.4,0.3l0,0l0,0l0,0l0,0l0,0H5.1
		l0,0l0,0v-1.2c0-0.1,0-0.1,0-0.1s0,0-0.1,0L4.6,37c0,0,0,0,0,0.1c0,0,0,0,0,0.1l0.3,0.3l0,0l0,0v0.2l0,0l0,0H4.2l0,0l0,0v-0.9
		c0-0.1,0-0.1,0-0.1l0,0l-0.5,0.5c0,0,0,0,0,0.1c0,0,0,0,0,0.1l0.4,0.4l0,0l0,0v3.8l0.2-0.2c0-0.1-0.1-0.3-0.1-0.4v-0.2l0,0l0,0h0.7
		l0,0l0,0V42l0.2-0.1c0-0.2-0.1-0.4-0.1-0.5v-0.5l0,0l0,0h0.7l0,0l0,0v0.8l0.2-0.2c0-0.2-0.1-0.4-0.1-0.6v-1.2l0,0l0,0h0.6l0,0l0,0
		v2.1l0.2-0.2c0-0.2-0.1-0.4-0.1-0.5v-1.5l0,0l0,0H7h0.5c0.1,0,0.1,0,0.1,0s0,0,0-0.1C7.9,39.4,7.9,39.3,7.8,39.1L7.8,39.1z
		 M4.2,38.9v-0.4l0,0l0,0h0.7l0,0l0,0v0.4l0,0l0,0H4.2L4.2,38.9L4.2,38.9L4.2,38.9z M4.9,40.1H4.2l0,0l0,0v-0.4l0,0l0,0h0.7l0,0l0,0
		V40.1L4.9,40.1L4.9,40.1L4.9,40.1z M5.1,38.9v-0.4l0,0l0,0h0.7l0,0l0,0v0.4l0,0l0,0H5.1L5.1,38.9L5.1,38.9L5.1,38.9z M5.7,40.1H5.1
		l0,0l0,0v-0.4l0,0l0,0h0.7l0,0l0,0V40.1L5.7,40.1L5.7,40.1L5.7,40.1z"/>
	<path class="st0" d="M6,29.5L6,29.5L6,29.5c0.7,0.1,1.4,0.1,1.9,0s1.2-0.4,1.6-0.8c-0.3-0.3-0.4-0.6-0.3-0.9c0,0,0-0.1,0.1-0.1
		l-0.1-0.1c-0.4,0.3-0.6,0.5-0.8,0.7c-0.2,0.2-0.4,0.3-0.8,0.5c-0.3,0.2-0.7,0.3-1,0.3c-0.3,0.1-0.6,0.1-1,0c-0.4,0-0.7-0.1-1-0.2
		c-0.1,0-0.2-0.1-0.3-0.3c0-0.2-0.1-0.2-0.1-0.2H4.4l-0.6,1c0.1,0,0.2,0.1,0.3,0.1c0.4,0.1,1,0.3,1.5,0.6c0.6,0.3,1.2,0.7,1.6,1.2
		c0.5,0.5,0.8,1.1,0.9,1.7h0.1c-0.1-0.9-0.3-1.6-0.6-2.2C7.3,30.3,6.8,29.9,6,29.5L6,29.5L6,29.5L6,29.5L6,29.5z"/>
	<polygon class="st0" points="10.9,23.9 10.9,23.9 10.9,23.9 10.9,23.9 	"/>
	<polygon class="st0" points="11.8,18.7 11.8,18.7 11.8,18.7 11.8,18.7 	"/>
	<path class="st0" d="M14.1,20.1C14.1,20,14.1,20,14.1,20.1C14,20,13.9,20,13.8,19.9c-0.3,0-0.7-0.2-1-0.4c-0.1-0.1-0.2-0.2-0.4-0.3
		l-0.1,0.1c0.2,0.2,0.4,0.5,0.6,0.9l0,0l0,0l0,0c-0.1,0.1-0.2,0.2-0.5,0.3c-0.3,0.1-0.6,0.1-0.8,0.1c-0.3,0-0.5-0.1-0.7-0.2l0,0l0,0
		l1.1-1.6c0-0.1,0-0.1,0-0.1s0,0-0.1,0c-0.1,0-0.7,0.2-0.7,0.2h-0.1c0,0,0,0,0,0.1l0,0l0,0l0.2,0.6l0,0l0,0l-0.5,0.8l0,0l0,0
		c-0.3-0.1-0.6-0.2-0.9-0.3l0,0l0,0l0.4-0.6l0,0l0,0l0.2,0.1c0,0,0.1,0,0.2-0.1c0-0.1,0.1-0.2,0.1-0.4s0-0.3-0.1-0.3l-0.5-0.3
		l-0.3,0c-0.1-0.1-0.1-0.2-0.2-0.3l0,0l0,0c0,0,0,0,0-0.1H9.7l-0.5,0.2c0,0-0.1,0-0.1,0.1v0.1L9.2,19l0,0l0,0l-1.2,1.7l0,0l0,0
		l-0.8,0.5c0.2,0.1,0.5,0.2,0.8,0.4l2.7,1.7c0.1,0.1,0.1,0.1,0,0.3c0,0.1,0,0.1,0,0.1s0,0,0.1,0.1l0.8,0.1h0.1v-0.1
		c-0.1-0.1-0.1-0.5-0.2-1.1l-0.1-1h-0.1c-0.1,0.3-0.2,0.7-0.3,1l0,0l0,0L9.9,22l0,0l0,0l0.6-0.9l0,0l0,0c0.2,0.1,0.5,0.2,0.7,0.2
		c0.3,0,0.6,0.1,0.9,0.1c0.3,0,0.6-0.1,0.8-0.2c0.3-0.1,0.5-0.3,0.7-0.5c0.2-0.2,0.4-0.3,0.4-0.4l0.1-0.1
		C14.1,20.2,14.1,20.2,14.1,20.1L14.1,20.1z M8.9,21.3L8.9,21.3l-0.8-0.5l0,0l0,0l1.3-1.9l0,0l0,0l0.8,0.5l0,0l0,0L8.9,21.3
		L8.9,21.3L8.9,21.3z M10.3,21.1l-0.5,0.8l0,0l0,0L9,21.4l0,0l0,0l0.5-0.7l0,0l0,0C9.7,20.8,10,20.9,10.3,21.1L10.3,21.1L10.3,21.1
		L10.3,21.1z"/>
	<polygon class="st0" points="16.2,11 16.2,11 16.2,11 	"/>
	<path class="st0" d="M19.2,12.3L19.2,12.3L19.2,12.3L19.2,12.3c-0.1-0.1-0.8-0.2-0.8-0.2s0,0-0.1,0v0.1l0.1,0.6l0,0l0,0L18,13.1
		l0,0l0,0l-1-1.1l0,0l0,0l1.1-0.9l0,0l0,0c0,0,0,0-0.1,0h-0.7c0,0,0,0-0.1,0c0,0,0,0,0,0.1l0,0l0,0v0.6l0,0l0,0L17,12l0,0l0,0
		l-0.6-0.6c-0.1-0.1-0.1-0.2-0.1-0.3c0-0.1,0-0.1,0-0.2c0,0,0,0-0.1,0l-0.9,0.4c0.1,0.1,0.2,0.2,0.5,0.4l0.6,0.7l0,0l0,0l-0.5,0.5
		l0,0l0,0l-0.6-0.6c-0.1-0.1-0.1-0.2,0-0.4c0,0,0,0,0-0.1h-0.1l-0.9,0.4c0.1,0.1,0.2,0.2,0.4,0.4l0.7,0.8l0,0l0,0l-1,0.9h0.3
		c0.1-0.2,0.2-0.3,0.3-0.4l0.5-0.4l0,0l0,0l1,1.1l0,0l0,0l-1.3,1.1h0.3c0.1-0.1,0.2-0.3,0.3-0.4L19.2,12.3L19.2,12.3z M15.9,13.1
		L15.9,13.1L15.9,13.1l0.5-0.5l0,0l0,0l1,1.1l0,0l0,0l-0.5,0.5l0,0l0,0L15.9,13.1L15.9,13.1z"/>
	<path class="st0" d="M17.6,14.7l-0.9,0.1c0.1,0.8,0,1.6-0.3,2.6h0.1c0.6-0.9,0.9-1.7,1-2.4l0,0l0,0L17.6,14.7
		C17.7,14.7,17.7,14.7,17.6,14.7L17.6,14.7L17.6,14.7z"/>
	<path class="st0" d="M20.1,14.3c0-0.1-0.1-0.2-0.2-0.3c-0.2-0.2-0.5-0.4-1-0.3c-0.4,0-0.9,0.2-1.5,0.5v0.1c0.7-0.1,1.4,0,2,0.3
		c0.2,0.1,0.3,0.1,0.4,0S20.1,14.4,20.1,14.3L20.1,14.3z"/>
	<path class="st0" d="M22.4,8.8L22.4,8.8L22.4,8.8L22.4,8.8L22.4,8.8z"/>
	<polygon class="st0" points="24.7,11.3 24.7,11.3 24.7,11.3 24.7,11.3 	"/>
	<path class="st0" d="M27.7,9l-0.4-0.8l-0.8-1.7c0-0.1,0-0.2,0-0.2c0-0.1,0.1-0.1,0-0.1c0,0,0,0-0.1-0.1L26,6c-0.1,0-0.1,0-0.1,0
		s-0.1,0-0.1,0.1l0,0l0,0l-0.2,0.4l0,0l0,0l-0.4,0.2l0,0l0,0h-0.8c0.1,0.1,0.2,0.3,0.2,0.5l0.2,0.4v0.1h-0.1l-0.5-0.3
		c-0.1,0-0.1,0-0.1,0s0,0,0,0.1L24,8l0,0l0,0h-0.1l0,0l0,0l-0.4-0.9l0,0l0,0c0.3-0.2,0.4-0.3,0.5-0.4c0.1-0.1,0.1-0.1,0.1-0.1
		s0.1,0,0.2,0c0.1,0,0.1,0,0.1-0.1V6.4l0,0L23.7,6c-0.5,0.7-1,1.4-1.6,1.9l0.1,0.1c0.4-0.2,0.7-0.4,1-0.6l0,0l0,0l0.2,0.8l0,0l0,0
		l-1.2,0.5l0.2,0.1c0.2-0.1,0.3-0.2,0.4-0.3L23,8.5l0,0l0,0c0.2,0.8,0.2,1.6,0,2.7h0.1c0.3-0.6,0.5-1.2,0.6-1.7l0,0l0,0l0,0l0,0l0,0
		l0.6,1.3l0.3,0.7v0.1c0,0,0.1,0.1,0.2,0c0.1,0,0.2-0.1,0.3-0.2c0.1-0.2,0.2-0.2,0.2-0.2V11l-0.1-0.1l-0.4-0.8l-0.5-1.5l0,0l0,0l0,0
		l0,0l0,0c0,0,0.1,0.1,0.2,0.1c0.1,0.1,0.2,0.2,0.3,0.3c0.1,0.1,0.2,0.2,0.3,0.1L25.1,9c0-0.1,0-0.1,0-0.2l0,0l0,0l0,0l0,0l0,0
		l0.4,0.8l0.3,0.8c0,0.1,0.1,0.1,0.1,0.1s0,0,0.1,0c0.1,0,0.1-0.1,0.2-0.2s0.2-0.2,0.2-0.3c0-0.1,0-0.1,0-0.2l-0.2-0.5l0,0l0,0
		L26.8,9l0,0l0,0l0.2,0.6c0,0,0,0.1,0.1,0.1c0,0,0,0,0.1,0s0.2-0.1,0.3-0.3C27.7,9.2,27.8,9.1,27.7,9L27.7,9z M25.1,8.5L25.1,8.5
		L25.1,8.5L25.1,8.5c-0.2-0.2-0.5-0.2-1.1,0l0,0l0,0l-0.1-0.3l0,0l0,0l0.8-0.4l0,0l0,0L25.1,8.5L25.1,8.5L25.1,8.5L25.1,8.5z
		 M26.8,8.9l-0.6,0.3l0,0l0,0l-1.1-2.4l0,0l0,0l0.6-0.3l0,0l0,0L26.8,8.9L26.8,8.9L26.8,8.9L26.8,8.9z"/>
	<polygon class="st0" points="24.2,7.4 24.2,7.4 24.2,7.4 24.2,7.4 	"/>
	<path class="st0" d="M36.6,7.1l-0.5-3.6l0,0l0,0l0.2-0.2V3.2c0,0,0-0.1-0.1-0.1l-0.5-0.3h-0.1h-0.1l-0.3,0.4l0,0l0,0l-2.9,0.4l0,0
		l0,0l-0.9-0.3c0.1,0.3,0.1,0.5,0.1,0.6l0.6,3.9l0.1,0.8v0.1h0.1c0.1,0,0.2-0.1,0.3-0.1c0.2-0.1,0.2-0.1,0.2-0.2V8.3l-0.1-0.4l0,0
		l0,0l3.1-0.5l0,0l0,0v0.2V8c0,0,0,0,0,0.1H36c0,0,0.1,0,0.3-0.1c0.2-0.1,0.2-0.2,0.2-0.3C36.7,7.6,36.6,7.1,36.6,7.1L36.6,7.1z
		 M35.6,4.3L35.6,4.3l0.1,0.5l0,0l0,0l-0.8-0.2c0,0.4-0.1,0.7-0.1,0.9l0,0l0,0l0,0l0,0l0,0c-0.1-0.1-0.1-0.5-0.2-1l0,0l0,0L35.6,4.3
		L35.6,4.3L35.6,4.3z M34.8,3.4l0.5-0.1l0,0l0,0L35.4,4v0.1h-0.1L35.1,4l0,0l0,0c0-0.1,0-0.1,0-0.2c0-0.1-0.1-0.2-0.2-0.2
		C35.1,3.5,35,3.5,34.8,3.4L34.8,3.4L34.8,3.4L34.8,3.4L34.8,3.4L34.8,3.4L34.8,3.4z M34.2,3.5L34.2,3.5L34.2,3.5L34.2,3.5l0.5-0.1
		h0.1v0.1l0,0C34.9,3.6,35,3.7,35,3.8S35.1,4,35.2,4l0,0l0,0l-0.3,0.3l0,0l0,0h-0.3l0,0l0,0l-0.1-0.4l0,0l0,0
		c0.1-0.1,0.1-0.1,0.1-0.2l0,0L34.2,3.5L34.2,3.5L34.2,3.5L34.2,3.5z M32.4,4.7l-0.1-0.8l0,0l0,0l1.5-0.2l0,0l0,0L33.8,4l0.1,0.4
		l0,0l0,0L32.4,4.7L32.4,4.7L32.4,4.7L32.4,4.7z M36,7.3l-3.1,0.5l0,0l0,0L32.8,7l0,0l0,0l0,0l0,0l0,0c0,0.1,0.1,0.1,0.1,0.2
		c0.1,0.1,0.1,0.2,0.1,0.2s0,0,0.1,0c0,0,0.1,0,0.1-0.1s0.1-0.2,0.2-0.3l0.8-0.6V6.3c-0.5,0.2-1,0.3-1.5,0.4l0,0l0,0l-0.3-2V4.6h0.1
		l0.1,0.1c0.2-0.1,0.3-0.1,0.4-0.1l1-0.1l0,0l0,0L34,4.9V5h-0.1l-0.3-0.2h-0.1c0,0,0,0-0.1,0l0,0l0,0l-0.2,0.3l0,0l0,0H33l0,0l0,0
		l-0.6-0.2c0,0.1,0.1,0.3,0.1,0.4l0.1,0.6l0.1,0.5c0,0.1,0,0.1,0,0.1s0,0,0.1,0c0,0,0.1,0,0.2-0.1c0.1-0.1,0.2-0.1,0.2-0.1
		s0,0,0-0.1V5.9l0,0l0,0h0.1l0,0l0,0v0.2l0,0c0,0,0,0,0.1,0c0,0,0.1,0,0.3-0.1c0.1-0.1,0.2-0.1,0.2-0.2l-0.1-0.3l0.1-0.3l0,0l0,0
		L34,5.2l0,0v0.1c0.1,0.5,0.2,0.9,0.4,1.2l0,0l0,0c-0.3,0.4-0.6,0.9-1,1.2l0,0c0.5-0.2,0.9-0.5,1.3-0.9l0,0l0,0
		C34.9,6.9,35,7,35.2,7.2c0.2,0.1,0.3,0.1,0.4,0.1c0.1,0,0.2-0.1,0.2-0.2s0-0.1-0.1-0.2c-0.1-0.1-0.1-0.2-0.1-0.4
		c0-0.1,0-0.4-0.1-0.7l0,0c-0.1,0.6-0.1,0.7-0.1,0.7s0,0.1-0.1,0.1h-0.1c0,0-0.1,0-0.2-0.2l0,0l0,0c0.1-0.3,0.3-0.6,0.4-1.1l0,0l0,0
		l0.1-0.1l0,0l0,0L36,7.3L36,7.3L36,7.3L36,7.3z M33.5,5.9L33.5,5.9h-0.2l0,0l0,0l-0.1-0.7l0,0l0,0h0.1l0,0l0,0L33.5,5.9L33.5,5.9
		L33.5,5.9z"/>
	<polygon class="st0" points="33.7,4.8 33.7,4.8 33.7,4.8 	"/>
	<path class="st0" d="M32.6,4.9L32.6,4.9C32.6,4.8,32.6,4.8,32.6,4.9L32.6,4.9L32.6,4.9z"/>
	<polygon class="st0" points="33.7,4.8 33.7,4.8 33.7,4.8 	"/>
	<polygon class="st0" points="45.9,3.9 45.9,3.9 45.9,3.9 45.9,3.9 	"/>
	<path class="st0" d="M44.6,4.8L44.6,4.8L44.6,4.8L46.4,5c0.1,0,0.1,0,0.1,0l0,0V4.9l-0.4-0.6c0,0,0,0-0.1,0h-0.1l-0.5,0.4l0,0l0,0
		l-1.1-0.2l0,0l0,0l0.1-0.6l0,0l0,0c0.1,0,0.3,0,0.6,0c0.3,0,0.5,0,0.6,0c0.1,0,0.1,0,0.1,0h0.1c0,0,0,0,0-0.1c0,0,0,0,0-0.1
		l-0.5-0.6c-0.7,0.2-1.8,0.3-3.4,0.4v0.1c0.5,0.1,1.1,0.1,1.7,0.2l0,0l0,0l-0.1,0.7l0,0l0,0l-2.3-0.3l0.1,0.2c0.1,0,0.3,0,0.6,0
		l0.8,0.1l0,0l0,0c-0.5,0.6-1.1,1.1-1.9,1.5l0.1,0.1c0.8-0.1,1.3-0.3,1.5-0.4l0,0v0.1l-0.1,0.6L42,7.6L42,8.1l0,0c0,0,0.1,0,0.2,0.1
		c0.1,0,0.3,0,0.4,0c0.2,0,0.2-0.1,0.2-0.1V7.8l0,0l0,0L44.1,8l0,0l0,0L44,8.4c0,0,0,0.1,0.1,0.1s0.2,0,0.4,0c0.2,0,0.2-0.1,0.2-0.1
		l0.1-0.5L45,6.7c0-0.1,0-0.1,0.1-0.1c0.1,0,0.1,0,0.1,0l0,0l0,0c0.2,0.2,0.4,0.3,0.4,0.3c0.1-0.2,0.2-0.3,0.3-0.4s0.2-0.1,0.4-0.1
		h0.1l0.2-0.3C45.8,5.8,45.1,5.4,44.6,4.8L44.6,4.8z M44.4,7l-0.1,0.7l0,0l0,0l-1.4-0.2l0,0l0,0V6.8l0,0l0,0L44.4,7L44.4,7L44.4,7
		L44.4,7z M44.5,6.2l-0.1,0.7l0,0l0,0L43,6.7l0,0l0,0L43.1,6l0,0l0,0L44.5,6.2L44.5,6.2L44.5,6.2L44.5,6.2z M44.9,5.9L44.9,5.9
		L44.9,5.9L44.9,5.9C44.8,5.9,44.8,5.8,44.9,5.9L44.9,5.9L44.9,5.9L44.9,5.9L44.5,6l0,0l0,0l-1.4-0.2l0,0l0,0l-0.4-0.3l0,0l0,0
		c0.3-0.2,0.6-0.4,0.8-0.7l0,0l0,0l0,0l0,0l0,0l-0.1,0.4v0.6l0,0l0,0c0,0,0,0,0.1,0s0.3,0,0.4,0c0.2,0,0.2-0.1,0.2-0.1l0.1-0.5
		l0.1-0.5l0,0l0,0l0,0l0,0l0,0C44.4,5.2,44.6,5.6,44.9,5.9L44.9,5.9L44.9,5.9L44.9,5.9z"/>
	<path class="st1" d="M54.3,11.1L54.3,11.1L54.3,11.1L54.3,11.1L54.3,11.1z"/>
	<polygon class="st0" points="55.8,8 55.8,8 55.8,8 	"/>
	<polygon class="st0" points="55.6,8.9 55.6,8.9 55.6,8.9 	"/>
	<path class="st0" d="M55.6,7.5C55.6,7.4,55.5,7.4,55.6,7.5C55.5,7.4,55.5,7.4,55.6,7.5l-0.5,0.1l0,0l0,0H55l0,0l0,0l0.2-0.5
		c0,0,0.1-0.1,0.2-0.1c0.1,0,0.1,0,0.1,0s0,0-0.1-0.1l-0.6-0.5c0,0.1-0.2,0.4-0.2,0.4l-0.2,0.5l0,0l0,0l-0.4-0.2l0,0l0,0l0.2-0.5
		c0,0,0.1-0.1,0.2-0.1c0.1,0,0.1,0,0.1,0s0,0-0.1-0.1l-0.6-0.5c0,0.1-0.2,0.5-0.2,0.5l-0.4,0.4l0,0l0,0l-0.6-0.3l0.1,0.2
		c0.1,0.1,0.2,0.1,0.3,0.1h0.1l0,0l0,0l-0.3,0.8l0,0l0,0l-0.7-0.3l0,0l0,0l0.4-0.5l0,0c-0.4,0.3-0.7,0.6-1.1,0.9
		C51.2,8,51,8.1,50.9,8.1c-0.1,0-0.2,0-0.4-0.1c-0.1,0-0.1-0.1-0.2-0.1L50.2,8c0.2,0.1,0.3,0.3,0.3,0.4c0,0.1,0,0.2,0,0.3
		c0,0.1-0.1,0.2-0.3,0.4C50.1,9.2,50,9.3,50,9.3c-0.1,0.1-0.1,0.3,0,0.5s0.1,0.3,0.3,0.4c0.2,0.1,0.3,0,0.4-0.3
		c0.1-0.2,0.1-0.3,0.2-0.5C50.9,9.2,51,9.1,51,9l0,0l0,0c0.4,0,0.8,0,1.1-0.1h0.1V9l-0.5,1.1c0,0.1,0,0.2,0,0.4
		c0,0.2,0.2,0.3,0.4,0.4c0.2,0.1,0.4,0.2,0.6,0.3c0.5,0.2,0.9,0.4,1.1,0.4s0.5-0.1,0.7-0.3c-0.2-0.2-0.2-0.4-0.2-0.5
		c0-0.1,0-0.3,0.1-0.4l-0.1-0.1c0,0-0.1,0.1-0.2,0.2c-0.1,0.1-0.2,0.2-0.2,0.3c-0.1,0-0.2,0-0.3,0c-0.1,0-0.3-0.1-0.6-0.2
		c-0.3-0.1-0.5-0.2-0.5-0.3c-0.1-0.1-0.1-0.2,0-0.3l0.2-0.4l0,0l0,0l0.7,0.1l0,0l0,0l-0.1,0.2l0,0c0,0,0,0,0.1,0.1
		c0.1,0,0.2,0.1,0.4,0.1c0.2,0,0.3-0.1,0.3-0.1l0.1-0.3V9.6v0.1c0.1,0.2,0.2,0.4,0.4,0.6c0.2-0.2,0.5-0.3,0.8-0.2l0.1-0.1
		c-0.6-0.5-1-1-1.1-1.5V8.5l0,0L55.5,9c0,0,0,0,0.1,0l0,0l0,0l-0.3-0.6c0-0.1,0-0.1,0-0.1s0,0-0.1,0l0,0l0,0l-0.5,0.2l0,0l0,0
		l-0.2-0.1l0,0l0,0l0.3-0.8l0,0l0,0l0.8,0.4c0.1,0,0.1,0,0.1,0l0,0c0,0,0,0,0-0.1C55.8,7.9,55.6,7.5,55.6,7.5L55.6,7.5z M51.2,8.6
		L51.2,8.6L51.2,8.6c0.2-0.4,0.5-0.8,1-1.3l0,0l0,0v0.1c0.1,0,0.2,0,0.3,0.1l0.2,0.1l0,0l0,0C52.3,8.2,51.8,8.5,51.2,8.6L51.2,8.6z
		 M53.6,9l-0.3,0.6l0,0l0,0l-0.6-0.3l0,0l0,0l0.2-0.6l0,0l0,0L53.6,9L53.6,9L53.6,9L53.6,9z M54,8.4c0,0.2,0,0.3,0,0.5l0,0l0,0h-0.3
		l0,0l0,0l-0.6-0.3l0,0l0,0L53,8.4l0,0l0,0c0,0,0.1-0.1,0.5-0.3l0,0l0,0L54,8.4L54,8.4L54,8.4L54,8.4z M54.2,7.4L54,8.2l0,0l0,0
		L53.6,8l0,0l0,0l0.3-0.8l0,0l0,0L54.2,7.4L54.2,7.4L54.2,7.4L54.2,7.4z"/>
	<path class="st0" d="M52,6c0,0.2,0,0.4,0.1,0.4c0.1,0,0.2,0,0.3,0c0.1-0.1,0.2-0.1,0.2-0.2c0.1-0.2-0.1-0.6-0.7-1.1h-0.1l0.1,0.3
		C52.1,5.6,52.1,5.8,52,6L52,6z"/>
	<path class="st0" d="M51.2,6.7c0,0.4,0,0.5,0,0.5c0,0.1,0.1,0.1,0.1,0.1c0.1,0,0.2,0,0.3,0c0.1-0.1,0.2-0.2,0.3-0.3
		c0-0.1,0-0.2,0-0.4c-0.1-0.1-0.3-0.4-0.6-0.7h-0.1C51.2,6.2,51.2,6.4,51.2,6.7L51.2,6.7z"/>
	<polygon class="st1" points="63.5,14.9 63.5,14.9 63.5,14.9 63.5,14.9 	"/>
	<polygon class="st0" points="62.9,15.6 62.9,15.6 62.9,15.6 62.9,15.6 	"/>
	<polygon class="st1" points="63.7,12.5 63.7,12.5 63.7,12.5 63.7,12.5 	"/>
	<polygon class="st1" points="63.9,14 63.9,14 63.9,14 	"/>
	<path class="st0" d="M63.8,13.4C63.8,13.3,63.8,13.3,63.8,13.4C63.7,13.3,63.7,13.3,63.8,13.4L63.8,13.4L63.8,13.4h-0.6l0,0l0,0
		L63,13.1l0,0l0,0l0.4-0.5l0,0l0,0h0.2c0,0,0,0,0.1,0v-0.1l-0.5-0.8c-0.1,0.1-0.4,0.6-0.4,0.6l-0.3,0.3l0,0l0,0l-0.8-0.7v0.3
		c0.1,0.1,0.2,0.1,0.3,0.2l0.4,0.3l0,0l0,0l-0.6,0.6l0,0l0,0l-0.9-0.7v0.3c0.1,0.1,0.3,0.1,0.4,0.2l0.9,0.7l0,0l0,0L62,14.1
		l-0.2,0.3l0,0l0,0l-1.3-1.2v0.2c0.1,0,0.2,0.1,0.3,0.2l0.9,0.8l0,0l0,0l-0.9,1.1h-0.1c0,0-0.1,0-0.2-0.1c-0.1-0.1-0.2-0.2-0.4-0.5
		l-0.1,0.1c0.1,0.1,0.1,0.2,0.2,0.4c0.1,0.1,0.1,0.2,0.1,0.3c0,0.1-0.1,0.2-0.2,0.4c0.1,0,0.4,0.1,0.4,0.1s0.2,0,0.3,0.1
		c0.2,0,0.3,0,0.4-0.2l1.1-1.2l0,0l0,0l0.7,0.6l0,0l0,0c0,0,0,0,0-0.1l-0.1-0.6v-0.1h-0.1l-0.4,0.2l0,0l0,0l-0.1-0.1l0,0l0,0
		l0.2-0.2l0,0l0,0c0.2,0,0.2,0,0.2,0s0,0,0-0.1l-0.5-0.7l0,0l0,0l0,0l0,0l0,0l1.3,1.1l0,0l0,0l0,0c0-0.1-0.1-0.7-0.1-0.7s0,0,0-0.1
		c0,0,0,0-0.1,0l-0.5,0.1l0,0l0,0l-0.5-0.4l0,0l0,0l0.6-0.6l0,0l0,0l0.9,0.8h0.1c0,0,0,0,0-0.1C63.8,14,63.8,13.4,63.8,13.4
		L63.8,13.4z"/>
	<polygon class="st0" points="62.2,11.3 62.2,11.3 62.2,11.3 	"/>
	<polygon class="st0" points="61.1,13.3 61,13.3 61,13.3 	"/>
	<path class="st0" d="M60.3,13.2L60.3,13.2l0.8,0.1v-0.1L60.5,13l0,0l0,0l0.5-0.6l0,0l0,0l0.5,0.4c0.1,0,0.1,0,0.1,0s0,0,0-0.1v-0.5
		c0,0,0,0,0-0.1c0,0,0,0-0.1,0l0,0l0,0l-0.3,0.1l0,0l0,0l0,0l0,0l0,0l0.8-0.9l0,0l0,0l0.2,0.1c0,0,0,0,0.1,0v-0.1l-0.5-0.8
		c-0.1,0.1-0.3,0.4-0.3,0.5l-0.2,0.2l0,0l0,0L61,10.7c-0.5,0.6-1.1,1.1-1.8,1.5v0.1c0.4-0.1,0.9-0.2,1.3-0.4l0,0l0,0l0.2,0.2l0,0
		l0,0L60,12.8l0,0l0,0l-1.1-0.4c0,0.1-0.2,0.7-0.2,0.7v0.1h0.1c0.1,0,0.2,0,0.3,0h0.5h0.1l0,0L59,14l-0.5,0.5l-0.1,0.1v0.1
		c0.1,0.1,0.2,0.1,0.4,0.2c0.2,0.1,0.3,0.1,0.4,0l0.4-0.5L60.3,13.2L60.3,13.2L60.3,13.2z M60.4,11.6L60.4,11.6L60.4,11.6
		c0-0.1,0.1-0.1,0.4-0.4l0,0l0,0h0.1l0,0l0,0L60.4,11.6L60.4,11.6L60.4,11.6L60.4,11.6L60.4,11.6z"/>
	<path class="st0" d="M60.2,15c0.1,0.1,0.2,0.1,0.3,0.1s0.2-0.1,0.3-0.2c0.1-0.1,0.1-0.2,0.1-0.4c0-0.1-0.1-0.4-0.2-0.7h-0.1
		c0,0.2-0.1,0.5-0.3,0.7C60.1,14.7,60.1,14.9,60.2,15L60.2,15z"/>
	<polygon class="st1" points="69.7,21 69.7,21 69.7,21 69.7,21 	"/>
	<path class="st0" d="M70.5,20.8c-0.1,0.1-0.3,0.2-0.5,0.4l-3.2,2c-0.1,0.1-0.2,0-0.2-0.1c-0.1-0.1-0.2-0.3-0.3-0.7h-0.1
		c0.1,0.2,0.1,0.4,0.1,0.5c0,0.1-0.1,0.3-0.4,0.5c0.4,0.4,0.8,0.5,1.2,0.3l3.3-2.1c0.1-0.1,0.2-0.1,0.3,0l0,0h0.1c0,0,0,0,0-0.1
		L70.5,20.8L70.5,20.8z"/>
	<polygon class="st0" points="69.3,20.1 69.3,20.1 69.3,20.1 	"/>
	<path class="st0" d="M67.1,21.3L67.1,21.3L67.1,21.3l0.3,0.1h0.1c0,0,0,0,0-0.1l0.1-0.6v-0.1c0,0,0-0.1-0.1-0.1L67,20.5l0,0l0,0
		l-0.2-0.3l0,0l0,0l0.3-0.2l0,0l0,0l0.2,0.1h0.1c0,0,0,0,0-0.1l-0.2-0.7l0,0l0,0l0.1-0.1l0,0l0,0l0.5,0.8l0,0l0,0l-0.3,0.2l0,0
		c0,0,0,0,0,0.1c0,0,0.1,0.1,0.2,0.2c0.2,0.1,0.2,0.2,0.3,0.2h0.1l0,0l0,0l0.4-0.3l0.5-0.3c0.1-0.1,0.3-0.1,0.4,0h0.1c0,0,0,0,0-0.1
		l0.1-0.6v-0.1c0,0,0-0.1-0.1-0.1L69,19.1l0,0l0,0l-0.4-0.6l0,0l0,0l-0.1-0.9c-0.1,0.1-0.3,0.2-0.5,0.3l-0.8,0.5l-0.6,0.3
		c0,0,0,0,0,0.1l0,0c0,0.1,0.1,0.2,0.3,0.3l0,0l0,0l-0.4,0.2c-0.4,0.2-0.8,0.4-1.2,0.5c-0.5,0.1-0.9,0.1-1.4,0v0.1
		c1,0.4,1.9,0.5,2.7,0.1l0,0l0,0l0.3,0.5l0,0l0,0c-0.3,0.2-0.6,0.3-0.9,0.5c-0.6,0.4-0.7,0.4-0.7,0.4c-0.1,0-0.1,0-0.1-0.1
		c-0.1-0.1-0.1-0.3-0.2-0.7h-0.1c0,0.3,0,0.5,0,0.6c-0.1,0.1-0.2,0.2-0.3,0.3c0.1,0.1,0.2,0.2,0.3,0.3s0.2,0.2,0.3,0.2
		c0.1,0.1,0.2,0.1,0.3,0.1c0.1,0,0.3-0.1,0.6-0.2C66.4,21.7,66.7,21.5,67.1,21.3L67.1,21.3z M67.4,19.1l0.9-0.6l0,0l0,0l0.5,0.8l0,0
		l0,0l-0.9,0.6l0,0l0,0L67.4,19.1L67.4,19.1L67.4,19.1L67.4,19.1z"/>
	<polygon class="st0" points="69.4,20 69.4,20 69.4,20 69.4,20 	"/>
	<path class="st0" d="M69.6,21.1C69.6,21,69.6,21,69.6,21.1l-0.2-1c-0.1,0.1-0.2,0.1-0.3,0.2c-0.1,0.1-0.2,0.1-0.2,0.2l-1.7,1.1
		L66.6,22c0,0-0.1,0-0.1,0.1v0.1c0,0,0,0,0.3,0.2c0.2,0.1,0.3,0.2,0.4,0.1l0.5-0.3l1.5-1C69.4,21,69.4,21,69.6,21.1L69.6,21.1
		C69.5,21.1,69.6,21.1,69.6,21.1L69.6,21.1z"/>
	<path class="st0" d="M71.1,28.7c0.1,0,0.2,0,0.3,0.1c0,0.1,0.1,0,0.1,0s0,0,0-0.1l0.1-0.3l0,0l0,0c0.2,0.1,0.3,0.1,0.4,0.1l0,0l0,0
		c0.2,0.1,0.3,0.2,0.3,0.3c0,0,0,0.1,0.1,0c0,0,0,0,0.1-0.1l0.2-0.9l0,0l0,0c0.4,0.2,0.6,0.4,0.7,0.5c0,0.1,0,0.1,0.1,0
		c0,0,0,0,0.1-0.1l0.3-0.8c-1-0.1-1.6-0.3-2.1-0.7l-0.1,0.1c0.4,0.4,0.7,0.7,1.1,0.9l0,0l0,0l0,0l0,0l0,0c-1-0.1-1.9-0.3-2.7-0.7
		l-0.2,0.3c0.3,0.3,0.7,0.6,0.9,0.7h0.1v0.1l-1.5,0.5l-0.7,0.2l0,0c0,0,0,0.1,0,0.2c0,0.1,0.1,0.2,0.2,0.4c0.1,0.1,0.2,0.2,0.2,0.2
		l0.6-0.2L71.1,28.7L71.1,28.7z"/>
	<path class="st0" d="M74.3,30.5L74.3,30.5l-0.6-0.3l0,0l0,0l-0.5-1.6l-0.1,0.2c0.1,0.1,0.1,0.2,0.2,0.4l0.6,1.9
		c0,0.1,0.1,0.1,0.1,0.1l0,0c0,0,0,0,0.1-0.1L74.3,30.5C74.3,30.6,74.3,30.5,74.3,30.5L74.3,30.5z"/>
	<path class="st0" d="M73,31.3L72.5,31l0,0l0,0l-0.7-2.3l-0.2,0.2c0.1,0.1,0.2,0.3,0.2,0.5l0.3,1l0,0l0,0L70,30.9
		c-0.1,0-0.1,0-0.2,0l-0.1-0.1c0-0.1-0.1-0.3-0.1-0.8h-0.1c0,0.5-0.2,0.9-0.6,1c0.3,0.5,0.6,0.8,0.9,0.7l2.4-0.7l0,0l0,0l0.3,1v0.1
		l0,0c0,0,0,0,0.1-0.1L73,31.3C73.1,31.4,73.1,31.4,73,31.3C73.1,31.3,73.1,31.3,73,31.3L73,31.3z"/>
	<polygon class="st0" points="75.3,40.5 75.3,40.5 75.3,40.5 75.3,40.5 	"/>
	<path class="st0" d="M73.3,39.1L73.3,39.1L73.3,39.1l0.3-0.3c0,0,0,0,0-0.1l0,0l-0.3-0.2l-0.1-0.1h0.1h1.3l0,0l0,0v0.7l0,0l0,0l0,0
		l0.6-0.5c0,0,0,0,0-0.1c0,0,0,0,0-0.1l-0.5-0.4l0,0l0,0v-1.7l-0.2,0.1c0.1,0.2,0.1,0.3,0.1,0.4v0.8l0,0l0,0h-2.8l0,0l0,0v-0.2l0,0
		l0,0h1.6c0.1,0,0.1,0,0.2,0.1l0.1,0.1l0,0l0.3-0.8c-0.1,0-0.6,0-0.6,0h-1.7l0,0l0,0l-0.1-0.5c-0.3,0.2-0.9,0.5-0.9,0.5
		c-0.1,0.1-0.1,0.1-0.1,0.1s0,0,0.1,0.1c0.1,0,0.1,0.1,0.1,0.1s0.1,0.1,0.2,0.3c0.1,0.2,0.2,0.5,0.3,0.8l0.6,1.5H72l-0.2-1l0,0l0,0
		h1.4l0,0l0,0v0.5l0,0l0,0c-0.3-0.1-0.6-0.2-1-0.4v0.1c0.2,0.3,0.6,0.5,0.9,0.7l0,0l0,0l0,0l0,0l0,0c-0.6,0.1-1,0.1-1.2,0.2l0,0l0,0
		c-0.7-0.6-1.2-1.3-1.5-2h-0.1c0.3,1.1,0.6,1.8,1.2,2.3l0,0l0,0c-0.3,0.2-0.7,0.5-1,0.9c0.3,0.2,0.5,0.5,0.5,0.9H71
		c0.2-0.7,0.5-1.2,0.8-1.5l0,0l0,0c0.4,0.2,1,0.4,1.6,0.5l0,0l0,0c0.1,0,0.2,0.1,0.3,0.3l0,0l0,0c0,0.1,0,0.1,0.1,0.1l0,0l0.1-0.3
		l0,0l0,0l0,0l0,0l0,0v0.7l0,0l0,0l0.5-0.6c0,0,0,0,0-0.1v-0.1l0,0l0,0l-0.5-0.4l0,0l0,0v-0.7l0,0l0,0c0,0,0.2,0.1,0.5,0.1
		c0.3,0.1,0.4,0.1,0.5,0.1C75,39.9,75,40,75,40c0,0.1,0.1,0.1,0.1,0.1s0,0,0.1,0l0.3-0.9C74.9,39.5,74.1,39.3,73.3,39.1L73.3,39.1z
		 M73.9,40.4c-0.7,0-1.2-0.1-1.5-0.2l0,0l0,0c0.2-0.2,0.5-0.3,1-0.5l0,0l0,0c0.3,0.1,0.5,0.2,0.6,0.3l0,0l0,0V40.4L73.9,40.4
		L73.9,40.4L73.9,40.4z"/>
	<polygon class="st0" points="72.7,51.6 72.7,51.6 72.7,51.6 72.7,51.6 	"/>
	<polygon class="st0" points="68.6,50.7 68.6,50.7 68.6,50.7 68.6,50.7 	"/>
	<path class="st0" d="M73.7,47.2l-3.4-1c-0.1,0-0.2-0.1-0.2-0.3c0,0,0,0,0-0.1c0,0,0,0-0.1,0l0,0l0,0l-0.6,0.4c0,0,0,0,0,0.1v0.1
		l0,0l0,0l0.2,0.4l0,0l0,0l-1.2,3.9v0.1l0,0l0.6-0.4c0,0,0,0,0-0.1c0,0,0,0,0-0.1l-0.3-0.5l0,0l0,0l0.9-3l0,0l0,0l3.9,1.2l0,0l0,0
		l-0.9,3.7v0.1c0,0,0,0,0.1,0l0.7-0.4l0,0c0,0,0,0,0-0.1l-0.3-0.5l0,0l0,0l0.8-2.6l0,0l0,0l0.6-0.7C74.3,47.3,73.7,47.2,73.7,47.2
		L73.7,47.2z"/>
	<polygon class="st0" points="72.4,50.8 72.4,50.8 72.4,50.8 72.4,50.8 	"/>
	<path class="st0" d="M72.9,50.4C72.9,50.4,72.9,50.3,72.9,50.4l-0.3-0.5l0,0l0,0l0.2-0.8l0,0l0,0l0.5-0.7c-0.1,0-0.5-0.1-0.5-0.1
		l-0.5-0.1l-0.5-0.2h-0.1l0,0c0,0,0,0.2,0,0.4c0,0.1,0,0.3,0.1,0.3H72l0,0l0,0l-0.3,1l0,0l0,0l-0.2-0.1c0,0,0,0-0.1,0c0,0,0,0,0,0.1
		c0,0,0,0.1,0,0.3s0,0.3,0,0.3s0,0,0.1,0.1l0.3,0.1l0.4,0.1l0,0l0,0l0.1,0.2l0,0c0,0,0,0,0.1,0C72.4,50.8,72.8,50.5,72.9,50.4
		C72.8,50.5,72.8,50.4,72.9,50.4L72.9,50.4z M72.5,50L72.5,50l-0.7-0.2l0,0l0,0l0.3-1l0,0l0,0l0.6,0.2l0,0l0,0L72.5,50L72.5,50
		L72.5,50z"/>
	<polygon class="st0" points="70.8,50.8 70.8,50.8 70.8,50.8 70.8,50.8 	"/>
	<path class="st0" d="M71,50.1L71,50.1L71,50.1l0.1-0.2l0,0l0,0l0.5-0.5l-0.2-0.1h-0.1l0,0l0.4-0.4c0,0,0,0,0-0.1c0,0,0,0,0-0.1l0,0
		l0,0l-0.2-0.3l0,0l0,0l0.1-0.3l0,0l0,0l0.6-0.6c-0.1,0-0.5-0.1-0.5-0.1l-1-0.3L70,47c0,0,0,0-0.1,0l0,0c0,0.1,0,0.2,0,0.4
		s0,0.3,0.1,0.3l0.4,0.1l0,0l0,0l-0.1,0.3l0,0l0,0h-0.2L69.8,48c0,0,0,0-0.1,0c0,0,0,0,0,0.1c0,0,0,0.1,0,0.3c0,0.2,0,0.3,0,0.3
		s0,0,0.1,0l0,0l0,0l0.5,0.1l0.8,0.2l0,0l0,0l0.1,0.2v0.1h-0.1l-1-0.3l-0.6-0.2c0,0,0,0-0.1,0l0,0c0,0.1,0,0.1,0,0.3
		c0,0.1,0,0.2,0,0.3c0,0,0,0.1,0.1,0.1l0.3,0.1l0,0l0,0l-0.1,0.2l0,0l0,0l-0.2-0.1c-0.1,0-0.1,0-0.1,0.1c0,0,0,0.1,0,0.3
		s0,0.3,0,0.3s0,0,0.1,0l0.4,0.1l0.7,0.2l0,0l0,0l0.1,0.2l0,0c0,0,0,0,0.1,0l0.5-0.4l0,0c0,0,0,0,0-0.1L71,50.1L71,50.1z M70.4,48.1
		L70.4,48.1L70.4,48.1l0.1-0.3l0,0l0,0l1,0.3l0,0l0,0l-0.1,0.3l0,0l0,0L70.4,48.1L70.4,48.1z M71,49.8l-0.1,0.3l0,0l0,0l-1-0.3l0,0
		l0,0l0.1-0.3l0,0l0,0L71,49.8L71,49.8L71,49.8L71,49.8z"/>
</g>
<g>
	<path d="M98.2,55.7v-9.3h-3.5v-1.3h8.3v1.3h-3.5v9.3H98.2z"/>
	<path d="M104.3,55.7V45.1h1.3v3.8c0.6-0.7,1.4-1.1,2.3-1.1c0.6,0,1.1,0.1,1.5,0.3c0.4,0.2,0.7,0.5,0.9,1c0.2,0.4,0.3,1,0.3,1.7v4.8
		h-1.3v-4.8c0-0.7-0.1-1.2-0.4-1.5c-0.3-0.3-0.7-0.5-1.2-0.5c-0.4,0-0.8,0.1-1.1,0.3s-0.6,0.5-0.7,0.8c-0.1,0.4-0.2,0.8-0.2,1.5v4.2
		L104.3,55.7L104.3,55.7z"/>
	<path d="M117.7,53.3l1.4,0.2c-0.2,0.8-0.6,1.4-1.2,1.8c-0.6,0.4-1.3,0.7-2.2,0.7c-1.2,0-2-0.4-2.6-1.1c-0.7-0.7-1-1.6-1-2.9
		s0.3-2.3,1-3c0.7-0.7,1.5-1.1,2.6-1.1c1.1,0,1.8,0.4,2.5,1.1c0.7,0.7,1,1.6,1,2.9c0,0.1,0,0.2,0,0.4h-5.7c0,0.9,0.3,1.5,0.7,1.9
		c0.4,0.5,1,0.7,1.5,0.7c0.5,0,0.9-0.1,1.3-0.4C117.3,54.2,117.5,53.8,117.7,53.3z M113.5,51.2h4.3c-0.1-0.7-0.2-1.2-0.5-1.5
		c-0.4-0.5-1-0.8-1.6-0.8c-0.6,0-1.1,0.2-1.5,0.6C113.7,50,113.5,50.5,113.5,51.2z"/>
	<path d="M129.9,51.5v-1.2h4.5v3.9c-0.7,0.6-1.4,1-2.1,1.3c-0.8,0.3-1.5,0.4-2.2,0.4c-1.1,0-1.9-0.2-2.8-0.7s-1.5-1.1-1.9-1.9
		c-0.4-0.9-0.7-1.7-0.7-2.8s0.2-1.9,0.7-2.9c0.4-0.9,1.1-1.5,1.8-1.9c0.8-0.4,1.7-0.7,2.8-0.7c0.8,0,1.5,0.1,2,0.4
		c0.6,0.3,1.1,0.6,1.5,1.1c0.4,0.5,0.6,1,0.8,1.7l-1.3,0.4c-0.2-0.6-0.4-1-0.6-1.3s-0.6-0.6-1-0.8c-0.5-0.2-1-0.3-1.5-0.3
		c-0.7,0-1.2,0.1-1.6,0.3c-0.5,0.2-0.9,0.5-1.2,0.8c-0.3,0.3-0.5,0.7-0.7,1.1c-0.3,0.7-0.4,1.4-0.4,2.1c0,1,0.2,1.7,0.5,2.3
		c0.3,0.7,0.8,1.1,1.5,1.5c0.6,0.3,1.3,0.5,1.9,0.5c0.6,0,1.2-0.1,1.7-0.4c0.6-0.2,1-0.5,1.4-0.8v-1.9L129.9,51.5L129.9,51.5z"/>
	<path d="M135.7,51.9c0-1.5,0.4-2.4,1.2-3.1c0.7-0.6,1.5-0.9,2.4-0.9c1.1,0,1.9,0.4,2.6,1.1c0.7,0.7,1,1.6,1,2.8
		c0,1-0.2,1.7-0.5,2.3c-0.3,0.6-0.7,1-1.3,1.4c-0.6,0.3-1.2,0.5-1.8,0.5c-1.1,0-1.9-0.4-2.6-1.1C136.1,54.2,135.7,53.2,135.7,51.9z
		 M137,51.9c0,1,0.2,1.7,0.7,2.2c0.4,0.5,1,0.8,1.6,0.8s1.2-0.3,1.6-0.8c0.4-0.5,0.7-1.3,0.7-2.2c0-1-0.2-1.6-0.7-2.1
		c-0.4-0.5-1-0.8-1.6-0.8s-1.2,0.3-1.6,0.8C137.2,50.2,137,51,137,51.9z"/>
	<path d="M146.5,55.7l-2.9-7.6h1.4l1.6,4.6c0.2,0.5,0.4,1,0.5,1.5c0.1-0.4,0.3-0.9,0.5-1.5l1.7-4.6h1.4l-2.9,7.6H146.5z"/>
	<path d="M157,53.3l1.4,0.2c-0.2,0.8-0.6,1.4-1.2,1.8c-0.6,0.4-1.3,0.7-2.2,0.7c-1.2,0-2-0.4-2.6-1.1c-0.7-0.7-1-1.6-1-2.9
		s0.3-2.3,1-3c0.7-0.7,1.5-1.1,2.6-1.1c1.1,0,1.8,0.4,2.5,1.1c0.7,0.7,1,1.6,1,2.9c0,0.1,0,0.2,0,0.4h-5.7c0,0.9,0.3,1.5,0.7,1.9
		c0.4,0.5,1,0.7,1.5,0.7c0.5,0,0.9-0.1,1.3-0.4C156.5,54.2,156.8,53.8,157,53.3z M152.7,51.2h4.3c-0.1-0.7-0.2-1.2-0.5-1.5
		c-0.4-0.5-1-0.8-1.6-0.8c-0.6,0-1.1,0.2-1.5,0.6C153,50,152.7,50.5,152.7,51.2z"/>
	<path d="M159.9,55.7v-7.6h1.2v1.2c0.3-0.6,0.6-0.9,0.9-1.1c0.3-0.2,0.5-0.3,0.9-0.3c0.5,0,0.9,0.1,1.4,0.4l-0.5,1.2
		c-0.3-0.2-0.7-0.3-1-0.3s-0.6,0.1-0.8,0.3c-0.2,0.2-0.4,0.4-0.5,0.7c-0.1,0.5-0.2,1-0.2,1.5v4L159.9,55.7L159.9,55.7z"/>
	<path d="M164.8,55.7v-7.6h1.2v1.1c0.6-0.9,1.4-1.3,2.4-1.3c0.5,0,0.9,0.1,1.3,0.3c0.4,0.2,0.7,0.4,0.9,0.7c0.2,0.3,0.3,0.6,0.4,1
		c0,0.2,0.1,0.7,0.1,1.3v4.7h-1.3v-4.6c0-0.5-0.1-1-0.2-1.2c-0.1-0.3-0.3-0.5-0.6-0.6c-0.3-0.2-0.6-0.2-0.9-0.2
		c-0.6,0-1.1,0.2-1.5,0.5c-0.4,0.4-0.6,1-0.6,2v4.2h-1.3V55.7z"/>
	<path d="M172.9,55.7v-7.6h1.2v1.1c0.2-0.4,0.6-0.7,1-0.9c0.4-0.2,0.9-0.4,1.4-0.4c0.6,0,1.1,0.1,1.4,0.4c0.4,0.2,0.6,0.6,0.8,1
		c0.6-0.9,1.4-1.4,2.3-1.4c0.8,0,1.4,0.2,1.7,0.6c0.4,0.4,0.6,1.1,0.6,1.9v5.2H182v-4.8c0-0.5,0-0.9-0.1-1.2
		c-0.1-0.2-0.2-0.4-0.5-0.6c-0.2-0.1-0.5-0.2-0.8-0.2c-0.6,0-1,0.2-1.4,0.6c-0.4,0.4-0.5,1-0.5,1.7v4.5h-1.3v-4.9
		c0-0.6-0.1-1-0.3-1.3c-0.2-0.3-0.6-0.4-1.1-0.4c-0.4,0-0.7,0.1-1,0.3s-0.6,0.5-0.7,0.9c-0.1,0.4-0.2,0.9-0.2,1.5v4L172.9,55.7
		L172.9,55.7z"/>
	<path d="M190.5,53.3l1.4,0.2c-0.2,0.8-0.6,1.4-1.2,1.8c-0.6,0.4-1.3,0.7-2.2,0.7c-1.2,0-2-0.4-2.6-1.1c-0.7-0.7-1-1.6-1-2.9
		s0.3-2.3,1-3c0.7-0.7,1.5-1.1,2.6-1.1c1.1,0,1.8,0.4,2.5,1.1c0.7,0.7,1,1.6,1,2.9c0,0.1,0,0.2,0,0.4h-5.7c0,0.9,0.3,1.5,0.7,1.9
		c0.4,0.5,1,0.7,1.5,0.7c0.5,0,0.9-0.1,1.3-0.4C190,54.2,190.3,53.8,190.5,53.3z M186.2,51.2h4.3c-0.1-0.7-0.2-1.2-0.5-1.5
		c-0.4-0.5-1-0.8-1.6-0.8c-0.6,0-1.1,0.2-1.5,0.6C186.5,50,186.2,50.5,186.2,51.2z"/>
	<path d="M193.4,55.7v-7.6h1.2v1.1c0.6-0.9,1.4-1.3,2.4-1.3c0.5,0,0.9,0.1,1.3,0.3c0.4,0.2,0.7,0.4,0.9,0.7c0.2,0.3,0.3,0.6,0.4,1
		c0,0.2,0.1,0.7,0.1,1.3v4.7h-1.3v-4.6c0-0.5-0.1-1-0.2-1.2c-0.1-0.3-0.3-0.5-0.6-0.6c-0.3-0.2-0.6-0.2-0.9-0.2
		c-0.6,0-1.1,0.2-1.5,0.5c-0.4,0.4-0.6,1-0.6,2v4.2h-1.3V55.7z"/>
	<path d="M204.4,54.5l0.2,1.2c-0.4,0.1-0.7,0.1-1,0.1c-0.5,0-0.9-0.1-1.1-0.2c-0.3-0.2-0.5-0.4-0.6-0.6c-0.1-0.3-0.2-0.8-0.2-1.5
		v-4.4h-1v-1h1v-1.9l1.3-0.8v2.7h1.3v1h-1.3v4.5c0,0.4,0,0.6,0.1,0.7c0,0.1,0.1,0.2,0.2,0.3c0.1,0.1,0.3,0.1,0.5,0.1
		C204,54.6,204.1,54.5,204.4,54.5z"/>
	<path d="M209.2,51.9c0-1.5,0.4-2.4,1.2-3.1c0.7-0.6,1.5-0.9,2.4-0.9c1.1,0,1.9,0.4,2.6,1.1c0.7,0.7,1,1.6,1,2.8
		c0,1-0.2,1.7-0.5,2.3s-0.7,1-1.3,1.4c-0.6,0.3-1.2,0.5-1.8,0.5c-1.1,0-1.9-0.4-2.6-1.1C209.5,54.2,209.2,53.2,209.2,51.9z
		 M210.6,51.9c0,1,0.2,1.7,0.7,2.2c0.4,0.5,1,0.8,1.6,0.8s1.2-0.3,1.6-0.8c0.4-0.5,0.7-1.3,0.7-2.2c0-1-0.2-1.6-0.7-2.1
		c-0.4-0.5-1-0.8-1.6-0.8s-1.2,0.3-1.6,0.8C210.8,50.2,210.6,51,210.6,51.9z"/>
	<path d="M218.3,55.7V49h-1.2v-1h1.2v-0.8c0-0.5,0-0.9,0.1-1.2c0.1-0.3,0.4-0.6,0.7-0.8c0.3-0.2,0.8-0.3,1.4-0.3
		c0.4,0,0.8,0,1.2,0.1l-0.2,1.2c-0.3,0-0.5-0.1-0.8-0.1c-0.4,0-0.7,0.1-0.9,0.3c-0.2,0.2-0.3,0.5-0.3,1v0.7h1.5v1h-1.5v6.7
		L218.3,55.7L218.3,55.7z"/>
	<path d="M228.9,54.5l0.2,1.2c-0.4,0.1-0.7,0.1-1,0.1c-0.5,0-0.9-0.1-1.1-0.2c-0.3-0.2-0.5-0.4-0.6-0.6c-0.1-0.3-0.2-0.8-0.2-1.5
		v-4.4h-1v-1h1v-1.9l1.3-0.8v2.7h1.3v1h-1.3v4.5c0,0.4,0,0.6,0.1,0.7c0,0.1,0.1,0.2,0.2,0.3s0.3,0.1,0.5,0.1
		C228.5,54.6,228.6,54.5,228.9,54.5z"/>
	<path d="M230.2,55.7V45.1h1.3v3.8c0.6-0.7,1.4-1.1,2.3-1.1c0.6,0,1.1,0.1,1.5,0.3c0.4,0.2,0.7,0.5,0.9,1c0.2,0.4,0.3,1,0.3,1.7v4.8
		h-1.3v-4.8c0-0.7-0.1-1.2-0.4-1.5c-0.3-0.3-0.7-0.5-1.2-0.5c-0.4,0-0.8,0.1-1.1,0.3s-0.6,0.5-0.7,0.8c-0.1,0.4-0.2,0.8-0.2,1.5v4.2
		L230.2,55.7L230.2,55.7z"/>
	<path d="M243.5,53.3l1.4,0.2c-0.2,0.8-0.6,1.4-1.2,1.8c-0.6,0.4-1.3,0.7-2.2,0.7c-1.2,0-2-0.4-2.6-1.1c-0.7-0.7-1-1.6-1-2.9
		s0.3-2.3,1-3c0.7-0.7,1.5-1.1,2.6-1.1c1.1,0,1.8,0.4,2.5,1.1c0.7,0.7,1,1.6,1,2.9c0,0.1,0,0.2,0,0.4h-5.7c0,0.9,0.3,1.5,0.7,1.9
		c0.4,0.5,1,0.7,1.5,0.7c0.5,0,0.9-0.1,1.3-0.4C243.1,54.2,243.3,53.8,243.5,53.3z M239.3,51.2h4.3c-0.1-0.7-0.2-1.2-0.5-1.5
		c-0.4-0.5-1-0.8-1.6-0.8c-0.6,0-1.1,0.2-1.5,0.6C239.6,50,239.4,50.5,239.3,51.2z"/>
	<path d="M250.8,55.7V45.1h1.4v4.4h5.5v-4.4h1.4v10.6h-1.4v-4.9h-5.5v4.9H250.8z"/>
	<path d="M260.8,51.9c0-1.5,0.4-2.4,1.2-3.1c0.7-0.6,1.5-0.9,2.4-0.9c1.1,0,1.9,0.4,2.6,1.1c0.7,0.7,1,1.6,1,2.8
		c0,1-0.2,1.7-0.5,2.3s-0.7,1-1.3,1.4c-0.6,0.3-1.2,0.5-1.8,0.5c-1.1,0-1.9-0.4-2.6-1.1C261,54.2,260.8,53.2,260.8,51.9z M262,51.9
		c0,1,0.2,1.7,0.7,2.2c0.4,0.5,1,0.8,1.6,0.8c0.7,0,1.2-0.3,1.6-0.8c0.4-0.5,0.7-1.3,0.7-2.2c0-1-0.2-1.6-0.7-2.1
		c-0.4-0.5-1-0.8-1.6-0.8c-0.7,0-1.2,0.3-1.6,0.8C262.3,50.2,262,51,262,51.9z"/>
	<path d="M269.4,55.7v-7.6h1.2v1.1c0.6-0.9,1.4-1.3,2.4-1.3c0.5,0,0.9,0.1,1.3,0.3c0.4,0.2,0.7,0.4,0.9,0.7c0.2,0.3,0.3,0.6,0.4,1
		c0,0.2,0.1,0.7,0.1,1.3v4.7h-1.3v-4.6c0-0.5-0.1-1-0.2-1.2c-0.1-0.3-0.3-0.5-0.6-0.6c-0.3-0.2-0.6-0.2-0.9-0.2
		c-0.6,0-1.1,0.2-1.5,0.5c-0.4,0.4-0.6,1-0.6,2v4.2h-1.3V55.7z"/>
	<path d="M277.3,56.4l1.3,0.2c0.1,0.4,0.2,0.7,0.5,0.9c0.3,0.2,0.8,0.4,1.4,0.4c0.6,0,1.1-0.1,1.4-0.4c0.3-0.2,0.6-0.6,0.7-1
		c0.1-0.3,0.1-0.8,0.1-1.6c-0.6,0.7-1.3,1-2.1,1c-1.1,0-1.8-0.4-2.4-1.2c-0.6-0.8-0.9-1.6-0.9-2.7c0-0.8,0.1-1.4,0.4-2
		c0.3-0.6,0.7-1.1,1.2-1.5c0.5-0.3,1.1-0.5,1.7-0.5c0.9,0,1.6,0.4,2.2,1.1v-1h1.2v6.6c0,1.2-0.1,2-0.4,2.5s-0.6,0.9-1.2,1.2
		c-0.5,0.3-1.2,0.4-1.9,0.4c-0.9,0-1.6-0.2-2.2-0.6C277.6,57.8,277.3,57.2,277.3,56.4z M278.4,51.7c0,1,0.2,1.7,0.6,2.2
		s0.9,0.7,1.5,0.7c0.6,0,1.1-0.2,1.5-0.7c0.4-0.5,0.6-1.2,0.6-2.1c0-1-0.2-1.6-0.6-2.1c-0.4-0.5-0.9-0.7-1.5-0.7
		c-0.6,0-1.1,0.2-1.5,0.7C278.6,50.2,278.4,50.9,278.4,51.7z"/>
	<path d="M289.9,55.7V45.1h1.4v5.2l5.2-5.2h1.9l-4.5,4.3l4.6,6.3h-1.8l-3.8-5.3l-1.7,1.6v3.7H289.9z"/>
	<path d="M299.2,51.9c0-1.5,0.4-2.4,1.2-3.1c0.7-0.6,1.5-0.9,2.4-0.9c1.1,0,1.9,0.4,2.6,1.1c0.7,0.7,1,1.6,1,2.8
		c0,1-0.2,1.7-0.5,2.3s-0.7,1-1.3,1.4c-0.6,0.3-1.2,0.5-1.8,0.5c-1.1,0-1.9-0.4-2.6-1.1C299.5,54.2,299.2,53.2,299.2,51.9z
		 M300.4,51.9c0,1,0.2,1.7,0.7,2.2c0.4,0.5,1,0.8,1.6,0.8c0.7,0,1.2-0.3,1.6-0.8c0.4-0.5,0.7-1.3,0.7-2.2c0-1-0.2-1.6-0.7-2.1
		c-0.4-0.5-1-0.8-1.6-0.8c-0.7,0-1.2,0.3-1.6,0.8C300.7,50.2,300.4,51,300.4,51.9z"/>
	<path d="M307.8,55.7v-7.6h1.2v1.1c0.6-0.9,1.4-1.3,2.4-1.3c0.5,0,0.9,0.1,1.3,0.3c0.4,0.2,0.7,0.4,0.9,0.7c0.2,0.3,0.3,0.6,0.4,1
		c0,0.2,0.1,0.7,0.1,1.3v4.7h-1.3v-4.6c0-0.5-0.1-1-0.2-1.2c-0.1-0.3-0.3-0.5-0.6-0.6c-0.3-0.2-0.6-0.2-0.9-0.2
		c-0.6,0-1.1,0.2-1.5,0.5c-0.4,0.4-0.6,1-0.6,2v4.2h-1.3V55.7z"/>
	<path d="M315.7,56.4l1.3,0.2c0.1,0.4,0.2,0.7,0.5,0.9c0.3,0.2,0.8,0.4,1.4,0.4s1.1-0.1,1.4-0.4c0.3-0.3,0.6-0.6,0.7-1
		c0.1-0.3,0.1-0.8,0.1-1.6c-0.6,0.7-1.3,1-2.1,1c-1.1,0-1.8-0.4-2.4-1.2s-0.9-1.6-0.9-2.7c0-0.8,0.1-1.4,0.4-2
		c0.3-0.6,0.7-1.1,1.2-1.5c0.5-0.4,1.1-0.5,1.7-0.5c0.9,0,1.6,0.4,2.2,1.1v-1h1.2v6.6c0,1.2-0.1,2-0.4,2.5s-0.6,0.9-1.2,1.2
		c-0.5,0.3-1.2,0.4-1.9,0.4c-0.9,0-1.6-0.2-2.2-0.6C316,57.8,315.7,57.2,315.7,56.4z M316.8,51.7c0,1,0.2,1.7,0.6,2.2
		c0.4,0.5,0.9,0.7,1.5,0.7s1.1-0.2,1.5-0.7c0.4-0.5,0.6-1.2,0.6-2.1c0-1-0.2-1.6-0.6-2.1c-0.4-0.5-0.9-0.7-1.5-0.7s-1.1,0.2-1.5,0.7
		C317,50.2,316.8,50.9,316.8,51.7z"/>
	<path d="M327.9,52.3l1.4-0.1c0.1,0.5,0.2,1,0.5,1.3c0.2,0.3,0.6,0.6,1.1,0.8c0.5,0.2,1.1,0.3,1.6,0.3c0.5,0,1-0.1,1.5-0.2
		c0.4-0.2,0.7-0.4,0.9-0.7c0.2-0.3,0.3-0.6,0.3-0.9c0-0.3-0.1-0.6-0.3-0.9c-0.2-0.3-0.5-0.5-1-0.6c-0.3-0.1-0.9-0.3-1.8-0.5
		c-1-0.2-1.6-0.5-2-0.7c-0.5-0.3-0.9-0.6-1.2-1c-0.3-0.4-0.4-0.9-0.4-1.4s0.2-1.1,0.5-1.5c0.3-0.5,0.8-0.8,1.4-1.1
		c0.6-0.2,1.3-0.4,1.9-0.4c0.8,0,1.5,0.1,2,0.4s1.1,0.6,1.4,1.1c0.3,0.5,0.5,1.1,0.5,1.6l-1.4,0.1c-0.1-0.7-0.3-1.2-0.8-1.5
		c-0.4-0.4-1.1-0.5-1.8-0.5c-0.9,0-1.5,0.2-1.8,0.5c-0.4,0.3-0.6,0.7-0.6,1.2c0,0.4,0.1,0.7,0.4,1c0.3,0.3,1,0.5,2.1,0.8
		c1.2,0.3,1.9,0.5,2.3,0.7c0.6,0.3,1.1,0.7,1.4,1.1c0.3,0.4,0.5,1,0.5,1.5c0,0.6-0.2,1.1-0.5,1.5c-0.3,0.5-0.8,0.9-1.4,1.2
		c-0.6,0.3-1.3,0.4-2,0.4c-1,0-1.7-0.1-2.4-0.4c-0.7-0.3-1.2-0.7-1.5-1.3C328.1,53.7,327.9,53,327.9,52.3z"/>
	<path d="M338,58.6V48.1h1.2v1c0.3-0.4,0.6-0.7,1-0.9c0.4-0.2,0.8-0.3,1.3-0.3c0.7,0,1.3,0.2,1.7,0.5c0.5,0.3,0.9,0.8,1.2,1.5
		c0.3,0.6,0.4,1.3,0.4,2s-0.1,1.5-0.4,2.1c-0.3,0.6-0.7,1.1-1.3,1.5c-0.6,0.3-1.1,0.5-1.6,0.5c-0.4,0-0.8-0.1-1.2-0.3
		c-0.4-0.2-0.6-0.4-0.9-0.7v3.7C339.4,58.6,338,58.6,338,58.6z M339.3,51.9c0,1,0.2,1.7,0.6,2.2c0.4,0.5,0.9,0.7,1.5,0.7
		s1.1-0.3,1.5-0.8c0.4-0.5,0.6-1.3,0.6-2.2c0-1-0.2-1.7-0.6-2.2c-0.4-0.5-0.9-0.8-1.5-0.8s-1.1,0.3-1.5,0.8
		C339.5,50.2,339.3,51,339.3,51.9z"/>
	<path d="M351.5,53.3l1.4,0.2c-0.2,0.8-0.6,1.4-1.2,1.8c-0.6,0.4-1.3,0.7-2.2,0.7c-1.2,0-2-0.4-2.6-1.1c-0.7-0.7-1-1.6-1-2.9
		s0.3-2.3,1-3c0.7-0.7,1.5-1.1,2.6-1.1s1.8,0.4,2.5,1.1c0.7,0.7,1,1.6,1,2.9c0,0.1,0,0.2,0,0.4h-5.7c0,0.9,0.3,1.5,0.7,1.9
		c0.4,0.5,1,0.7,1.5,0.7c0.5,0,0.9-0.1,1.3-0.4C351,54.2,351.3,53.8,351.5,53.3z M347.2,51.2h4.3c-0.1-0.7-0.2-1.2-0.5-1.5
		c-0.4-0.5-1-0.8-1.6-0.8c-0.6,0-1.1,0.2-1.5,0.6C347.5,50,347.2,50.5,347.2,51.2z"/>
	<path d="M359.4,52.9l1.3,0.2c-0.1,0.9-0.5,1.5-1.1,2s-1.3,0.8-2.1,0.8c-1.1,0-1.8-0.4-2.5-1.1c-0.7-0.7-1-1.6-1-2.9
		c0-0.9,0.1-1.5,0.4-2.1c0.3-0.6,0.7-1.1,1.3-1.4c0.6-0.3,1.2-0.5,1.8-0.5c0.9,0,1.5,0.2,2,0.6c0.5,0.4,0.9,1,1,1.7l-1.3,0.2
		c-0.1-0.5-0.3-0.9-0.7-1.2c-0.3-0.3-0.7-0.4-1.1-0.4c-0.7,0-1.2,0.2-1.5,0.7c-0.4,0.5-0.6,1.2-0.6,2.2s0.2,1.7,0.6,2.2
		c0.4,0.5,0.9,0.7,1.5,0.7c0.5,0,1-0.2,1.3-0.5C359.1,54.1,359.3,53.6,359.4,52.9z"/>
	<path d="M361.7,46.7v-1.5h1.3v1.5H361.7z M361.7,55.7v-7.6h1.3v7.6H361.7z"/>
	<path d="M370,54.7c-0.5,0.4-1,0.7-1.4,0.9c-0.5,0.2-1,0.3-1.5,0.3c-0.9,0-1.5-0.2-1.9-0.6s-0.7-1-0.7-1.5c0-0.4,0.1-0.7,0.3-1.1
		c0.2-0.3,0.4-0.6,0.7-0.8c0.3-0.2,0.6-0.3,1-0.4c0.3-0.1,0.7-0.1,1.2-0.2c1.1-0.1,1.8-0.3,2.3-0.5c0-0.2,0-0.3,0-0.3
		c0-0.5-0.1-0.9-0.4-1.2c-0.3-0.3-0.8-0.5-1.5-0.5c-0.6,0-1.1,0.1-1.4,0.3s-0.5,0.6-0.7,1.2l-1.3-0.2c0.1-0.6,0.3-1,0.6-1.4
		c0.3-0.3,0.7-0.6,1.2-0.8s1.1-0.3,1.7-0.3s1.2,0.1,1.5,0.2c0.4,0.2,0.7,0.4,0.9,0.6c0.2,0.2,0.3,0.5,0.4,0.9c0,0.2,0.1,0.6,0.1,1.2
		v1.7c0,1.2,0,1.9,0.1,2.3c0.1,0.3,0.2,0.6,0.3,0.9h-1.4C370.2,55.4,370.1,55.1,370,54.7z M369.9,51.8c-0.5,0.2-1.2,0.4-2.1,0.5
		c-0.5,0.1-0.9,0.2-1.2,0.3c-0.2,0.1-0.4,0.2-0.5,0.4c-0.1,0.2-0.2,0.4-0.2,0.6c0,0.4,0.1,0.7,0.4,0.9s0.7,0.4,1.2,0.4
		s1-0.1,1.4-0.3s0.7-0.5,0.9-0.9c0.1-0.3,0.2-0.7,0.2-1.3L369.9,51.8L369.9,51.8z"/>
	<path d="M373.2,55.7V45.1h1.3v10.6H373.2z"/>
	<path d="M378.8,55.7l4.1-10.6h1.5l4.4,10.6h-1.5l-1.3-3.2h-4.5l-1.2,3.2H378.8z M381.8,51.3h3.6l-1.1-2.9c-0.3-0.9-0.6-1.6-0.8-2.2
		c-0.1,0.7-0.3,1.4-0.6,2L381.8,51.3z"/>
	<path d="M394.5,55.7v-1c-0.5,0.8-1.2,1.2-2.1,1.2c-0.6,0-1.2-0.2-1.6-0.5c-0.5-0.3-0.9-0.8-1.2-1.5c-0.3-0.6-0.4-1.3-0.4-2
		s0.1-1.5,0.4-2s0.7-1.1,1.2-1.5c0.5-0.3,1.1-0.5,1.7-0.5c0.5,0,0.9,0.1,1.3,0.3c0.4,0.2,0.7,0.5,0.9,0.8v-3.8h1.3v10.6L394.5,55.7
		L394.5,55.7z M390.4,51.9c0,1,0.2,1.7,0.6,2.2c0.4,0.5,0.9,0.8,1.5,0.8s1.1-0.2,1.5-0.7c0.4-0.5,0.6-1.2,0.6-2.1
		c0-1.1-0.2-1.8-0.6-2.3c-0.4-0.5-0.9-0.8-1.5-0.8s-1.1,0.2-1.5,0.7S390.4,50.9,390.4,51.9z"/>
	<path d="M397.7,55.7v-7.6h1.2v1.1c0.2-0.4,0.6-0.7,1-0.9c0.4-0.2,0.9-0.4,1.4-0.4c0.6,0,1.1,0.1,1.4,0.4c0.4,0.2,0.6,0.6,0.8,1
		c0.6-0.9,1.4-1.4,2.3-1.4c0.8,0,1.4,0.2,1.7,0.6c0.4,0.4,0.6,1.1,0.6,1.9v5.2h-1.3v-4.8c0-0.5,0-0.9-0.1-1.2
		c-0.1-0.2-0.2-0.4-0.5-0.6c-0.2-0.1-0.5-0.2-0.8-0.2c-0.6,0-1,0.2-1.4,0.6c-0.4,0.4-0.5,1-0.5,1.7v4.5h-1.3v-4.9
		c0-0.6-0.1-1-0.3-1.3c-0.2-0.3-0.6-0.4-1.1-0.4c-0.4,0-0.7,0.1-1,0.3s-0.6,0.5-0.7,0.9c-0.1,0.4-0.2,0.9-0.2,1.5v4L397.7,55.7
		L397.7,55.7z"/>
	<path d="M409.9,46.7v-1.5h1.3v1.5H409.9z M409.9,55.7v-7.6h1.3v7.6H409.9z"/>
	<path d="M413.2,55.7v-7.6h1.2v1.1c0.6-0.9,1.4-1.3,2.4-1.3c0.5,0,0.9,0.1,1.3,0.3c0.4,0.2,0.7,0.4,0.9,0.7c0.2,0.3,0.3,0.6,0.4,1
		c0,0.2,0.1,0.7,0.1,1.3v4.7h-1.3v-4.6c0-0.5-0.1-1-0.2-1.2c-0.1-0.3-0.3-0.5-0.6-0.6c-0.3-0.2-0.6-0.2-0.9-0.2
		c-0.6,0-1.1,0.2-1.5,0.5c-0.4,0.4-0.6,1-0.6,2v4.2h-1.3V55.7z"/>
	<path d="M421.4,46.7v-1.5h1.3v1.5H421.4z M421.4,55.7v-7.6h1.3v7.6H421.4z"/>
	<path d="M424.2,53.5l1.3-0.2c0.1,0.5,0.3,0.9,0.6,1.2c0.3,0.3,0.8,0.4,1.4,0.4s1.1-0.1,1.4-0.4s0.4-0.5,0.4-0.9
		c0-0.3-0.1-0.5-0.4-0.7c-0.2-0.1-0.6-0.3-1.4-0.5c-1-0.2-1.6-0.5-1.9-0.6c-0.4-0.2-0.7-0.4-0.9-0.8c-0.2-0.3-0.3-0.7-0.3-1.1
		s0.1-0.7,0.2-1c0.2-0.3,0.4-0.5,0.7-0.7c0.2-0.2,0.5-0.3,0.9-0.4c0.4-0.1,0.7-0.2,1.2-0.2c0.6,0,1.2,0.1,1.5,0.3
		c0.5,0.2,0.8,0.4,1,0.7c0.2,0.3,0.4,0.7,0.5,1.2l-1.3,0.2c-0.1-0.4-0.2-0.7-0.5-1c-0.3-0.2-0.7-0.3-1.2-0.3c-0.6,0-1.1,0.1-1.3,0.3
		c-0.3,0.2-0.4,0.4-0.4,0.7c0,0.2,0.1,0.3,0.2,0.5c0.1,0.1,0.3,0.3,0.5,0.4c0.1,0,0.5,0.2,1.2,0.3c0.9,0.3,1.5,0.5,1.9,0.6
		c0.4,0.2,0.7,0.4,0.9,0.7c0.2,0.3,0.3,0.7,0.3,1.1c0,0.4-0.1,0.9-0.4,1.3c-0.3,0.4-0.6,0.7-1.1,0.9c-0.5,0.2-1,0.3-1.6,0.3
		c-1,0-1.7-0.2-2.2-0.6C424.7,54.8,424.3,54.2,424.2,53.5z"/>
	<path d="M434.8,54.5l0.2,1.2c-0.4,0.1-0.7,0.1-1,0.1c-0.5,0-0.9-0.1-1.1-0.2c-0.3-0.2-0.5-0.4-0.6-0.6c-0.1-0.3-0.2-0.8-0.2-1.5
		v-4.4h-1v-1h1v-1.9l1.3-0.8v2.7h1.3v1h-1.3v4.5c0,0.4,0,0.6,0.1,0.7c0,0.1,0.1,0.2,0.2,0.3c0.1,0.1,0.3,0.1,0.5,0.1
		C434.4,54.6,434.6,54.5,434.8,54.5z"/>
	<path d="M436.1,55.7v-7.6h1.2v1.2c0.3-0.6,0.6-0.9,0.9-1.1c0.3-0.2,0.5-0.3,0.9-0.3c0.5,0,0.9,0.1,1.4,0.4l-0.5,1.2
		c-0.3-0.2-0.7-0.3-1-0.3s-0.6,0.1-0.8,0.3c-0.2,0.2-0.4,0.4-0.5,0.7c-0.1,0.5-0.2,1-0.2,1.5v4L436.1,55.7L436.1,55.7z"/>
	<path d="M446,54.7c-0.5,0.4-1,0.7-1.4,0.9c-0.5,0.2-1,0.3-1.5,0.3c-0.9,0-1.5-0.2-1.9-0.6s-0.7-1-0.7-1.5c0-0.4,0.1-0.7,0.3-1.1
		c0.2-0.3,0.4-0.6,0.7-0.8c0.3-0.2,0.6-0.3,1-0.4c0.3-0.1,0.7-0.1,1.2-0.2c1.1-0.1,1.8-0.3,2.3-0.5c0-0.2,0-0.3,0-0.3
		c0-0.5-0.1-0.9-0.4-1.2c-0.3-0.3-0.8-0.5-1.5-0.5c-0.6,0-1.1,0.1-1.4,0.3s-0.5,0.6-0.7,1.2l-1.3-0.2c0.1-0.6,0.3-1,0.6-1.4
		c0.3-0.3,0.7-0.6,1.2-0.8s1.1-0.3,1.7-0.3s1.2,0.1,1.5,0.2c0.4,0.2,0.7,0.4,0.9,0.6c0.2,0.2,0.3,0.5,0.4,0.9c0,0.2,0.1,0.6,0.1,1.2
		v1.7c0,1.2,0,1.9,0.1,2.3c0.1,0.3,0.2,0.6,0.3,0.9h-1.4C446.1,55.4,446,55.1,446,54.7z M445.9,51.8c-0.5,0.2-1.2,0.4-2.1,0.5
		c-0.5,0.1-0.9,0.2-1.2,0.3c-0.2,0.1-0.4,0.2-0.5,0.4c-0.1,0.2-0.2,0.4-0.2,0.6c0,0.4,0.1,0.7,0.4,0.9s0.7,0.4,1.2,0.4
		s1-0.1,1.4-0.3s0.7-0.5,0.9-0.9c0.1-0.3,0.2-0.7,0.2-1.3L445.9,51.8L445.9,51.8z"/>
	<path d="M452,54.5l0.2,1.2c-0.4,0.1-0.7,0.1-1,0.1c-0.5,0-0.9-0.1-1.1-0.2c-0.3-0.2-0.5-0.4-0.6-0.6c-0.1-0.3-0.2-0.8-0.2-1.5v-4.4
		h-1v-1h1v-1.9l1.3-0.8v2.7h1.3v1h-1.3v4.5c0,0.4,0,0.6,0.1,0.7c0,0.1,0.1,0.2,0.2,0.3c0.1,0.1,0.3,0.1,0.5,0.1
		C451.6,54.6,451.8,54.5,452,54.5z"/>
	<path d="M453.2,46.7v-1.5h1.3v1.5H453.2z M453.2,55.7v-7.6h1.3v7.6H453.2z"/>
	<path d="M458.6,55.7l-2.9-7.6h1.4l1.6,4.6c0.2,0.5,0.4,1,0.5,1.5c0.1-0.4,0.3-0.9,0.5-1.5l1.7-4.6h1.4l-2.9,7.6H458.6z"/>
	<path d="M469.1,53.3l1.4,0.2c-0.2,0.8-0.6,1.4-1.2,1.8c-0.6,0.4-1.3,0.7-2.2,0.7c-1.2,0-2-0.4-2.6-1.1c-0.7-0.7-1-1.6-1-2.9
		s0.3-2.3,1-3c0.7-0.7,1.5-1.1,2.6-1.1s1.8,0.4,2.5,1.1c0.7,0.7,1,1.6,1,2.9c0,0.1,0,0.2,0,0.4h-5.8c0,0.9,0.3,1.5,0.7,1.9
		c0.4,0.5,1,0.7,1.5,0.7c0.5,0,0.9-0.1,1.3-0.4C468.6,54.2,468.9,53.8,469.1,53.3z M464.8,51.2h4.3c-0.1-0.7-0.2-1.2-0.5-1.5
		c-0.4-0.5-1-0.8-1.6-0.8c-0.6,0-1.1,0.2-1.5,0.6C465.1,50,464.8,50.5,464.8,51.2z"/>
	<path d="M476.3,55.7V45.1h4.6c1,0,1.6,0.1,2.1,0.3c0.5,0.2,0.9,0.5,1.2,1c0.3,0.5,0.5,1,0.5,1.5c0,0.8-0.3,1.4-0.8,1.9
		c-0.5,0.5-1.3,0.9-2.2,1c0.4,0.2,0.7,0.4,0.9,0.5c0.4,0.4,0.8,0.9,1.2,1.4l1.8,2.9h-1.7l-1.4-2.2c-0.4-0.7-0.8-1.2-1-1.5
		c-0.3-0.3-0.5-0.6-0.7-0.7c-0.2-0.1-0.4-0.2-0.7-0.3c-0.2,0-0.4-0.1-0.8-0.1h-1.6v4.6h-1.5V55.7z M477.7,49.8h3
		c0.7,0,1.2-0.1,1.5-0.2c0.4-0.1,0.7-0.4,0.8-0.7c0.2-0.3,0.3-0.6,0.3-1c0-0.5-0.2-0.9-0.6-1.3c-0.4-0.3-1-0.5-1.7-0.5h-3.3
		L477.7,49.8L477.7,49.8z"/>
	<path d="M492,53.3l1.4,0.2c-0.2,0.8-0.6,1.4-1.2,1.8c-0.6,0.4-1.3,0.7-2.2,0.7c-1.2,0-2-0.4-2.6-1.1c-0.7-0.7-1-1.6-1-2.9
		s0.3-2.3,1-3c0.7-0.7,1.5-1.1,2.6-1.1s1.8,0.4,2.5,1.1c0.7,0.7,1,1.6,1,2.9c0,0.1,0,0.2,0,0.4h-5.7c0,0.9,0.3,1.5,0.7,1.9
		c0.4,0.5,1,0.7,1.5,0.7c0.5,0,0.9-0.1,1.3-0.4C491.5,54.2,491.8,53.8,492,53.3z M487.7,51.2h4.3c-0.1-0.7-0.2-1.2-0.5-1.5
		c-0.4-0.5-1-0.8-1.6-0.8c-0.6,0-1.1,0.2-1.5,0.6C488,50,487.8,50.5,487.7,51.2z"/>
	<path d="M494.7,56.4l1.3,0.2c0.1,0.4,0.2,0.7,0.5,0.9c0.3,0.2,0.8,0.4,1.4,0.4s1.1-0.1,1.4-0.4c0.3-0.2,0.6-0.6,0.7-1
		c0.1-0.3,0.1-0.8,0.1-1.6c-0.6,0.7-1.3,1-2.1,1c-1.1,0-1.8-0.4-2.4-1.2s-0.9-1.6-0.9-2.7c0-0.8,0.1-1.4,0.4-2
		c0.3-0.6,0.7-1.1,1.2-1.5c0.5-0.3,1.1-0.5,1.7-0.5c0.9,0,1.6,0.4,2.2,1.1v-1h1.2v6.6c0,1.2-0.1,2-0.4,2.5c-0.3,0.5-0.6,0.9-1.2,1.2
		c-0.5,0.3-1.2,0.4-1.9,0.4c-0.9,0-1.6-0.2-2.2-0.6C495,57.8,494.7,57.2,494.7,56.4z M495.7,51.7c0,1,0.2,1.7,0.6,2.2
		c0.4,0.5,0.9,0.7,1.5,0.7s1.1-0.2,1.5-0.7c0.4-0.5,0.6-1.2,0.6-2.1c0-1-0.2-1.6-0.6-2.1c-0.4-0.5-0.9-0.7-1.5-0.7s-1.1,0.2-1.5,0.7
		C495.9,50.2,495.7,50.9,495.7,51.7z"/>
	<path d="M503.1,46.7v-1.5h1.3v1.5H503.1z M503.1,55.7v-7.6h1.3v7.6H503.1z"/>
	<path d="M505.9,51.9c0-1.5,0.4-2.4,1.2-3.1c0.7-0.6,1.5-0.9,2.4-0.9c1.1,0,1.9,0.4,2.6,1.1c0.7,0.7,1,1.6,1,2.8
		c0,1-0.2,1.7-0.5,2.3c-0.3,0.6-0.7,1-1.3,1.4c-0.6,0.3-1.2,0.5-1.8,0.5c-1.1,0-1.9-0.4-2.6-1.1C506.2,54.2,505.9,53.2,505.9,51.9z
		 M507.2,51.9c0,1,0.2,1.7,0.7,2.2c0.4,0.5,1,0.8,1.6,0.8c0.7,0,1.2-0.3,1.6-0.8c0.4-0.5,0.7-1.3,0.7-2.2c0-1-0.2-1.6-0.7-2.1
		c-0.4-0.5-1-0.8-1.6-0.8c-0.7,0-1.2,0.3-1.6,0.8C507.4,50.2,507.2,51,507.2,51.9z"/>
	<path d="M514.5,55.7v-7.6h1.2v1.1c0.6-0.9,1.4-1.3,2.4-1.3c0.5,0,0.9,0.1,1.3,0.3c0.4,0.2,0.7,0.4,0.9,0.7c0.2,0.3,0.3,0.6,0.4,1
		c0,0.2,0.1,0.7,0.1,1.3v4.7h-1.3v-4.6c0-0.5-0.1-1-0.2-1.2c-0.1-0.3-0.3-0.5-0.6-0.6c-0.3-0.2-0.6-0.2-0.9-0.2
		c-0.6,0-1.1,0.2-1.5,0.5c-0.4,0.4-0.6,1-0.6,2v4.2h-1.3V55.7z"/>
</g>
<g>
	<path d="M95.2,28.3c0-1.5,0.2-2.6,0.7-3.6c0.3-0.7,0.8-1.4,1.4-1.9c0.6-0.6,1.2-1,1.8-1.3c0.9-0.4,1.8-0.6,3-0.6
		c2,0,3.8,0.7,4.9,1.9c1.3,1.3,1.8,3.1,1.8,5.3s-0.6,4.1-1.8,5.3c-1.3,1.3-2.9,1.9-4.9,1.9c-2.1,0-3.8-0.7-5-1.9
		C95.8,32.3,95.2,30.5,95.2,28.3z M98.1,28.2c0,1.5,0.4,2.8,1.1,3.6c0.8,0.8,1.6,1.3,2.8,1.3c1.2,0,2-0.4,2.8-1.3
		c0.7-0.8,1.1-2,1.1-3.7c0-1.6-0.4-2.8-1.1-3.6c-0.7-0.8-1.6-1.2-2.8-1.2c-1.2,0-2.1,0.4-2.8,1.2C98.5,25.4,98.1,26.6,98.1,28.2z"/>
	<path d="M109.8,25.1h1.5v-0.8c0-0.9,0.1-1.5,0.3-1.9c0.2-0.4,0.5-0.8,1-1.1s1.1-0.4,1.8-0.4c0.8,0,1.5,0.1,2.2,0.4l-0.4,1.8
		c-0.4-0.1-0.9-0.2-1.3-0.2c-0.4,0-0.7,0.1-0.9,0.3c-0.2,0.2-0.3,0.5-0.3,1.1V25h2v2.1h-2v8h-2.4v-8h-1.5L109.8,25.1L109.8,25.1z"/>
	<path d="M116.4,25.1h1.5v-0.8c0-0.9,0.1-1.5,0.3-1.9c0.2-0.4,0.5-0.8,1-1.1s1.1-0.4,1.8-0.4c0.8,0,1.5,0.1,2.2,0.4l-0.4,1.8
		c-0.4-0.1-0.9-0.2-1.3-0.2c-0.4,0-0.7,0.1-0.9,0.3c-0.2,0.2-0.3,0.5-0.3,1.1V25h2v2.1h-2v8h-2.7v-8h-1.5v-2H116.4z"/>
	<path d="M124.1,23.7v-2.5h2.7v2.5H124.1z M124.1,35.3V25.1h2.7v10.2H124.1z"/>
	<path d="M138.5,28.1l-2.6,0.5c-0.1-0.5-0.3-1-0.6-1.2c-0.3-0.3-0.8-0.4-1.3-0.4c-0.7,0-1.2,0.2-1.6,0.7c-0.4,0.5-0.6,1.3-0.6,2.3
		c0,1.2,0.2,2,0.6,2.5c0.4,0.5,1,0.8,1.6,0.8c0.5,0,1-0.2,1.3-0.5c0.3-0.3,0.6-0.8,0.7-1.5l2.6,0.5c-0.3,1.3-0.8,2.1-1.5,2.7
		c-0.8,0.6-1.8,1-3.1,1c-1.5,0-2.7-0.5-3.6-1.5s-1.4-2.2-1.4-3.9s0.5-3,1.4-4s2.1-1.5,3.6-1.5c1.3,0,2.2,0.3,3,0.8
		C137.6,26.2,138.1,26.9,138.5,28.1z"/>
	<path d="M146.4,32l2.7,0.5c-0.4,1-0.9,1.7-1.6,2.2c-0.8,0.5-1.6,0.8-2.8,0.8c-1.7,0-3.1-0.6-4-1.7c-0.7-1-1-2.1-1-3.5
		c0-1.6,0.5-3,1.4-4c0.9-1,2-1.5,3.4-1.5c1.5,0,2.7,0.5,3.6,1.5c0.9,1,1.3,2.5,1.3,4.6h-6.8c0,0.8,0.2,1.5,0.7,1.8
		c0.4,0.5,1,0.7,1.5,0.7c0.4,0,0.8-0.1,1.1-0.4C146,32.9,146.2,32.6,146.4,32z M146.5,29.3c0-0.8-0.2-1.4-0.6-1.7
		c-0.4-0.4-0.9-0.6-1.4-0.6c-0.6,0-1.1,0.2-1.5,0.7c-0.4,0.4-0.6,1-0.6,1.7L146.5,29.3L146.5,29.3z"/>
	<path d="M156.3,30c0-0.9,0.2-1.7,0.7-2.6c0.5-0.9,1.1-1.5,1.8-1.9c0.8-0.5,1.7-0.7,2.7-0.7c1.5,0,2.8,0.5,3.8,1.5
		c1,1,1.5,2.2,1.5,3.8c0,1.5-0.5,2.8-1.5,3.9c-1,1-2.2,1.5-3.8,1.5c-1,0-1.8-0.2-2.7-0.7c-0.9-0.4-1.5-1.1-1.9-1.8
		C156.5,32.2,156.3,31.2,156.3,30z M159,30.1c0,1,0.2,1.7,0.7,2.3c0.5,0.6,1.1,0.8,1.7,0.8s1.3-0.3,1.7-0.8c0.5-0.6,0.7-1.4,0.7-2.3
		s-0.2-1.7-0.7-2.3c-0.5-0.6-1.1-0.8-1.7-0.8s-1.3,0.3-1.7,0.8C159.3,28.4,159,29.2,159,30.1z"/>
	<path d="M167.7,25.1h1.5v-0.8c0-0.9,0.1-1.5,0.3-1.9c0.2-0.4,0.5-0.8,1-1.1c0.5-0.3,1.1-0.4,1.8-0.4c0.8,0,1.5,0.1,2.2,0.4
		l-0.4,1.8c-0.4-0.1-0.9-0.2-1.3-0.2c-0.4,0-0.7,0.1-0.9,0.3c-0.2,0.2-0.3,0.5-0.3,1.1V25h2v2.1h-2v8H169v-8h-1.5v-2H167.7z"/>
	<path d="M185.5,25.1v2.1h-1.8v4.1c0,0.9,0,1.4,0.1,1.5c0,0.1,0.1,0.3,0.2,0.4c0.1,0.1,0.3,0.1,0.5,0.1c0.3,0,0.6-0.1,1.1-0.3
		l0.2,2.1c-0.6,0.3-1.4,0.4-2.1,0.4c-0.5,0-1-0.1-1.4-0.3c-0.4-0.2-0.7-0.4-0.9-0.7c-0.2-0.3-0.3-0.6-0.4-1.1
		c-0.1-0.3-0.1-1-0.1-1.9V27h-1.3v-2.1h1.3v-2l2.7-1.5v3.6h1.9V25.1z"/>
	<path d="M190.1,21.2v5.1c0.9-1,1.9-1.5,3.1-1.5c0.6,0,1.2,0.1,1.6,0.4c0.5,0.2,0.9,0.5,1.2,0.9s0.4,0.8,0.5,1.2
		c0.1,0.4,0.1,1.1,0.1,2v6h-2.7v-5.4c0-1.1-0.1-1.7-0.2-2c-0.1-0.3-0.3-0.5-0.6-0.7c-0.3-0.2-0.6-0.3-1-0.3c-0.5,0-0.9,0.1-1.2,0.3
		c-0.4,0.2-0.6,0.6-0.8,1c-0.2,0.5-0.3,1.1-0.3,1.9v5.1h-2.7V21.2H190.1z"/>
	<path d="M205.3,32l2.7,0.5c-0.4,1-0.9,1.7-1.6,2.2s-1.6,0.8-2.8,0.8c-1.7,0-3.1-0.6-4-1.7c-0.7-1-1-2.1-1-3.5c0-1.6,0.5-3,1.4-4
		c0.9-1,2-1.5,3.4-1.5c1.5,0,2.7,0.5,3.6,1.5c0.9,1,1.3,2.5,1.3,4.6h-6.8c0,0.8,0.2,1.5,0.7,1.8c0.4,0.5,1,0.7,1.5,0.7
		c0.4,0,0.8-0.1,1.1-0.4C205,32.9,205.2,32.6,205.3,32z M205.5,29.3c0-0.8-0.2-1.4-0.6-1.7s-0.9-0.6-1.4-0.6c-0.6,0-1.1,0.2-1.5,0.7
		c-0.4,0.4-0.6,1-0.6,1.7L205.5,29.3L205.5,29.3z"/>
	<path d="M222.3,30v-2.3h6.1v5.6c-0.6,0.6-1.5,1.1-2.6,1.5c-1.2,0.5-2.2,0.7-3.4,0.7c-1.5,0-2.7-0.3-3.9-1c-1.1-0.6-1.9-1.5-2.4-2.6
		c-0.6-1.2-0.9-2.4-0.9-3.8c0-1.5,0.3-2.8,1-3.9c0.6-1.2,1.5-2,2.7-2.6c0.9-0.5,2-0.7,3.4-0.7c1.7,0,3.1,0.4,4.1,1.1
		c1,0.8,1.6,1.7,1.9,3l-2.8,0.5c-0.2-0.7-0.6-1.3-1.2-1.6c-0.6-0.4-1.3-0.6-2-0.6c-1.3,0-2.2,0.4-3,1.2c-0.8,0.8-1.1,1.9-1.1,3.5
		c0,1.6,0.4,2.9,1.1,3.8c0.8,0.9,1.7,1.3,2.9,1.3c0.6,0,1.2-0.1,1.7-0.4c0.6-0.2,1.1-0.5,1.5-0.9V30H222.3z"/>
	<path d="M230.5,30c0-0.9,0.2-1.7,0.7-2.6c0.5-0.9,1.1-1.5,1.8-1.9c0.8-0.5,1.7-0.7,2.7-0.7c1.5,0,2.8,0.5,3.8,1.5
		c1,1,1.5,2.2,1.5,3.8c0,1.5-0.5,2.8-1.5,3.9c-1,1-2.2,1.5-3.8,1.5c-1,0-1.8-0.2-2.7-0.7c-0.9-0.4-1.5-1.1-1.9-1.8
		C230.6,32.2,230.5,31.2,230.5,30z M233.3,30.1c0,1,0.2,1.7,0.7,2.3c0.5,0.6,1.1,0.8,1.7,0.8s1.3-0.3,1.7-0.8
		c0.5-0.6,0.7-1.4,0.7-2.3s-0.2-1.7-0.7-2.3s-1.1-0.8-1.7-0.8s-1.3,0.3-1.7,0.8C233.5,28.4,233.3,29.2,233.3,30.1z"/>
	<path d="M245.8,35.3l-4.1-10.2h2.8l1.9,5.2l0.6,1.7c0.2-0.5,0.2-0.8,0.3-0.9c0.1-0.3,0.2-0.6,0.3-0.9l1.9-5.2h2.8l-4.1,10.2H245.8z
		"/>
	<path d="M259.9,32l2.7,0.5c-0.4,1-0.9,1.7-1.6,2.2c-0.8,0.5-1.6,0.8-2.8,0.8c-1.7,0-3.1-0.6-4-1.7c-0.7-1-1-2.1-1-3.5
		c0-1.6,0.5-3,1.4-4c0.9-1,2-1.5,3.4-1.5c1.5,0,2.7,0.5,3.6,1.5c0.9,1,1.3,2.5,1.3,4.6H256c0,0.8,0.2,1.5,0.7,1.8
		c0.4,0.5,1,0.7,1.5,0.7c0.4,0,0.8-0.1,1.1-0.4C259.5,32.9,259.8,32.6,259.9,32z M260.1,29.3c0-0.8-0.2-1.4-0.6-1.7
		c-0.4-0.4-0.9-0.6-1.4-0.6c-0.6,0-1.1,0.2-1.5,0.7c-0.4,0.4-0.6,1-0.6,1.7L260.1,29.3L260.1,29.3z"/>
	<path d="M267.5,35.3h-2.7V25.1h2.5v1.5c0.4-0.7,0.8-1.2,1.2-1.4s0.8-0.3,1.2-0.3c0.6,0,1.2,0.2,1.7,0.5l-0.9,2.3
		c-0.5-0.3-0.9-0.5-1.3-0.5c-0.4,0-0.7,0.1-1,0.3c-0.3,0.2-0.5,0.6-0.6,1.2c-0.2,0.6-0.2,1.6-0.2,3.4L267.5,35.3L267.5,35.3z"/>
	<path d="M281.9,35.3h-2.7V30c0-1.1-0.1-1.8-0.2-2.1c-0.1-0.3-0.3-0.6-0.6-0.8c-0.3-0.2-0.6-0.3-1-0.3c-0.5,0-0.9,0.1-1.3,0.4
		c-0.4,0.3-0.6,0.6-0.8,1.1c-0.1,0.4-0.2,1.2-0.2,2.3v4.6h-2.7V25.1h2.5v1.5c0.9-1.2,2-1.7,3.4-1.7c0.6,0,1.2,0.1,1.6,0.3
		c0.5,0.2,0.9,0.5,1.2,0.8c0.3,0.3,0.4,0.7,0.5,1.2c0.1,0.4,0.2,1.1,0.2,1.8L281.9,35.3L281.9,35.3z"/>
	<path d="M284.4,25.1h2.5v1.4c0.9-1.1,1.9-1.6,3.2-1.6c0.7,0,1.3,0.1,1.7,0.4c0.5,0.3,0.9,0.7,1.2,1.3c0.5-0.6,1-1,1.5-1.3
		s1.1-0.4,1.6-0.4c0.8,0,1.4,0.2,1.9,0.5c0.5,0.3,0.9,0.8,1.2,1.4c0.2,0.4,0.3,1.2,0.3,2.1v6.5h-2.7v-5.8c0-1-0.1-1.6-0.3-1.9
		c-0.3-0.4-0.7-0.6-1.2-0.6c-0.4,0-0.8,0.1-1.1,0.4c-0.3,0.2-0.6,0.6-0.7,1c-0.2,0.5-0.2,1.2-0.2,2.1v4.9h-2.9v-5.6
		c0-1,0-1.6-0.1-1.9s-0.3-0.5-0.5-0.7c-0.2-0.1-0.5-0.2-0.8-0.2c-0.4,0-0.8,0.1-1.2,0.3c-0.3,0.2-0.6,0.6-0.7,1
		c-0.1,0.4-0.2,1.2-0.2,2.1v4.9h-2.7L284.4,25.1L284.4,25.1z"/>
	<path d="M307.9,32l2.7,0.5c-0.4,1-0.9,1.7-1.6,2.2c-0.8,0.5-1.6,0.8-2.8,0.8c-1.7,0-3.1-0.6-4-1.7c-0.7-1-1-2.1-1-3.5
		c0-1.6,0.5-3,1.4-4c0.9-1,2-1.5,3.4-1.5c1.5,0,2.7,0.5,3.6,1.5c0.9,1,1.3,2.5,1.3,4.6H304c0,0.8,0.2,1.5,0.7,1.8
		c0.4,0.5,1,0.7,1.5,0.7c0.4,0,0.8-0.1,1.1-0.4C307.6,32.9,307.8,32.6,307.9,32z M308.1,29.3c0-0.8-0.2-1.4-0.6-1.7
		c-0.4-0.4-0.9-0.6-1.4-0.6c-0.6,0-1.1,0.2-1.5,0.7c-0.4,0.4-0.6,1-0.6,1.7L308.1,29.3L308.1,29.3z"/>
	<path d="M322.2,35.3h-2.7V30c0-1.1-0.1-1.8-0.2-2.1c-0.1-0.3-0.3-0.6-0.6-0.8c-0.3-0.2-0.6-0.3-1-0.3c-0.5,0-0.9,0.1-1.3,0.4
		c-0.4,0.3-0.6,0.6-0.8,1.1c-0.1,0.4-0.2,1.2-0.2,2.3v4.6h-2.7V25.1h2.5v1.5c0.9-1.2,2-1.7,3.4-1.7c0.6,0,1.2,0.1,1.6,0.3
		c0.5,0.2,0.9,0.5,1.2,0.8c0.3,0.3,0.4,0.7,0.5,1.2c0.1,0.4,0.2,1.1,0.2,1.8L322.2,35.3L322.2,35.3z"/>
	<path d="M329.6,25.1v2.1h-1.8v4.1c0,0.9,0,1.4,0.1,1.5c0,0.1,0.1,0.3,0.2,0.4c0.1,0.1,0.3,0.1,0.5,0.1c0.3,0,0.6-0.1,1.1-0.3
		l0.2,2.1c-0.6,0.3-1.4,0.4-2.1,0.4c-0.5,0-1-0.1-1.4-0.3c-0.4-0.2-0.7-0.4-0.9-0.7c-0.2-0.3-0.3-0.6-0.4-1.1
		c-0.1-0.3-0.1-1-0.1-1.9V27h-1.3v-2.1h1.3v-2l2.7-1.5v3.6h1.9V25.1z"/>
	<path d="M346,30l2.7,0.9c-0.4,1.5-1.2,2.7-2.1,3.4c-1,0.8-2.2,1.2-3.8,1.2c-1.8,0-3.4-0.7-4.6-1.9c-1.2-1.3-1.8-3-1.8-5.2
		c0-2.3,0.6-4.2,1.8-5.4c1.2-1.3,2.8-1.9,4.7-1.9c1.7,0,3.1,0.5,4.2,1.5c0.7,0.6,1.2,1.5,1.5,2.6l-2.8,0.7c-0.2-0.8-0.5-1.3-1.1-1.7
		c-0.5-0.4-1.2-0.7-1.9-0.7c-1.1,0-1.9,0.4-2.5,1.2c-0.7,0.8-1,1.9-1,3.7c0,1.7,0.3,3,1,3.8c0.7,0.8,1.5,1.2,2.5,1.2
		c0.8,0,1.4-0.2,1.9-0.7C345.4,31.9,345.8,31.1,346,30z"/>
	<path d="M353.8,21.2v5.1c0.9-1,1.9-1.5,3.1-1.5c0.6,0,1.2,0.1,1.6,0.4c0.5,0.2,0.9,0.5,1.2,0.9s0.4,0.8,0.5,1.2
		c0.1,0.4,0.1,1.1,0.1,2v6h-2.7v-5.4c0-1.1-0.1-1.7-0.2-2c-0.1-0.3-0.3-0.5-0.6-0.7c-0.3-0.2-0.6-0.3-1-0.3c-0.5,0-0.9,0.1-1.2,0.3
		c-0.4,0.2-0.6,0.6-0.8,1c-0.2,0.5-0.3,1.1-0.3,1.9v5.1h-2.7V21.2H353.8z"/>
	<path d="M363.1,23.7v-2.5h2.7v2.5H363.1z M363.1,35.3V25.1h2.7v10.2H363.1z"/>
	<path d="M374.5,32l2.7,0.5c-0.4,1-0.9,1.7-1.6,2.2c-0.8,0.5-1.6,0.8-2.8,0.8c-1.7,0-3.1-0.6-4-1.7c-0.7-1-1-2.1-1-3.5
		c0-1.6,0.5-3,1.4-4c0.9-1,2-1.5,3.4-1.5c1.5,0,2.7,0.5,3.6,1.5c0.9,1,1.3,2.5,1.3,4.6h-6.8c0,0.8,0.2,1.5,0.7,1.8
		c0.4,0.5,1,0.7,1.5,0.7c0.4,0,0.8-0.1,1.1-0.4C374.1,32.9,374.3,32.6,374.5,32z M374.6,29.3c0-0.8-0.2-1.4-0.6-1.7
		c-0.4-0.4-0.9-0.6-1.4-0.6c-0.6,0-1.1,0.2-1.5,0.7c-0.4,0.4-0.6,1-0.6,1.7L374.6,29.3L374.6,29.3z"/>
	<path d="M378.4,25.1h1.5v-0.8c0-0.9,0.1-1.5,0.3-1.9c0.2-0.4,0.5-0.8,1-1.1c0.5-0.3,1.1-0.4,1.8-0.4s1.5,0.1,2.2,0.4l-0.4,1.8
		c-0.4-0.1-0.9-0.2-1.3-0.2c-0.4,0-0.7,0.1-0.9,0.3c-0.2,0.2-0.3,0.5-0.3,1.1V25h2v2.1h-2v8h-2.7v-8h-1.5v-2H378.4z"/>
	<path d="M391.5,35.3v-14h2.8v14H391.5z"/>
	<path d="M406.3,35.3h-2.7V30c0-1.1-0.1-1.8-0.2-2.1c-0.1-0.3-0.3-0.6-0.6-0.8c-0.3-0.2-0.6-0.3-1-0.3c-0.5,0-0.9,0.1-1.3,0.4
		c-0.4,0.3-0.6,0.6-0.8,1.1c-0.1,0.4-0.2,1.2-0.2,2.3v4.6H397V25.1h2.5v1.5c0.9-1.2,2-1.7,3.4-1.7c0.6,0,1.2,0.1,1.6,0.3
		c0.5,0.2,0.9,0.5,1.2,0.8c0.3,0.3,0.4,0.7,0.5,1.2c0.1,0.4,0.2,1.1,0.2,1.8L406.3,35.3L406.3,35.3z"/>
	<path d="M407.8,25.1h1.5v-0.8c0-0.9,0.1-1.5,0.3-1.9c0.2-0.4,0.5-0.8,1-1.1s1.1-0.4,1.8-0.4c0.8,0,1.5,0.1,2.2,0.4l-0.4,1.8
		c-0.4-0.1-0.9-0.2-1.3-0.2c-0.4,0-0.7,0.1-0.9,0.3c-0.2,0.2-0.3,0.5-0.3,1.1V25h2v2.1h-2v8h-2.7v-8h-1.5v-2H407.8z"/>
	<path d="M414.9,30c0-0.9,0.2-1.7,0.7-2.6c0.5-0.9,1.1-1.5,1.8-1.9c0.8-0.5,1.7-0.7,2.7-0.7c1.5,0,2.8,0.5,3.8,1.5
		c1,1,1.5,2.2,1.5,3.8c0,1.5-0.5,2.8-1.5,3.9c-1,1-2.2,1.5-3.8,1.5c-1,0-1.8-0.2-2.7-0.7c-0.9-0.4-1.5-1.1-1.9-1.8
		C415.1,32.2,414.9,31.2,414.9,30z M417.7,30.1c0,1,0.2,1.7,0.7,2.3c0.5,0.6,1.1,0.8,1.7,0.8c0.7,0,1.3-0.3,1.7-0.8
		c0.5-0.6,0.7-1.4,0.7-2.3s-0.2-1.7-0.7-2.3c-0.5-0.6-1.1-0.8-1.7-0.8c-0.7,0-1.3,0.3-1.7,0.8C417.9,28.4,417.7,29.2,417.7,30.1z"/>
	<path d="M430.1,35.3h-2.7V25.1h2.5v1.5c0.4-0.7,0.8-1.2,1.2-1.4c0.4-0.2,0.8-0.3,1.2-0.3c0.6,0,1.2,0.2,1.7,0.5l-0.9,2.3
		c-0.5-0.3-0.9-0.5-1.3-0.5c-0.4,0-0.7,0.1-1,0.3c-0.3,0.2-0.5,0.6-0.6,1.2c-0.2,0.6-0.2,1.6-0.2,3.4L430.1,35.3L430.1,35.3z"/>
	<path d="M434.9,25.1h2.5v1.4c0.9-1.1,1.9-1.6,3.2-1.6c0.7,0,1.3,0.1,1.7,0.4s0.9,0.7,1.2,1.3c0.5-0.6,1-1,1.5-1.3s1.1-0.4,1.6-0.4
		c0.8,0,1.4,0.2,1.9,0.5c0.5,0.3,0.9,0.8,1.2,1.4c0.2,0.4,0.3,1.2,0.3,2.1v6.5h-2.7v-5.8c0-1-0.1-1.6-0.3-1.9
		c-0.3-0.4-0.7-0.6-1.2-0.6c-0.4,0-0.8,0.1-1.1,0.4c-0.3,0.2-0.6,0.6-0.7,1c-0.2,0.5-0.2,1.2-0.2,2.1v4.9h-2.7v-5.6
		c0-1,0-1.6-0.1-1.9c-0.1-0.3-0.3-0.5-0.5-0.7c-0.2-0.1-0.5-0.2-0.8-0.2c-0.4,0-0.8,0.1-1.2,0.3c-0.3,0.2-0.6,0.6-0.7,1
		c-0.1,0.4-0.2,1.2-0.2,2.1v4.9h-2.7V25.1H434.9z"/>
	<path d="M454.7,28.2l-2.4-0.5c0.3-1,0.8-1.7,1.5-2.2c0.7-0.5,1.6-0.7,3-0.7c1.2,0,2.1,0.1,2.7,0.4c0.6,0.3,1,0.7,1.3,1.1
		c0.2,0.5,0.4,1.3,0.4,2.4v3.1c0,0.9,0,1.5,0.1,1.9c0.1,0.4,0.3,0.9,0.5,1.4h-2.7c-0.1-0.2-0.2-0.5-0.3-0.8c0-0.2-0.1-0.3-0.1-0.3
		c-0.5,0.5-1,0.8-1.5,1c-0.5,0.2-1.1,0.3-1.6,0.3c-1.1,0-1.8-0.3-2.5-0.9c-0.6-0.6-0.9-1.3-0.9-2.1c0-0.6,0.1-1.1,0.4-1.5
		c0.3-0.5,0.7-0.8,1.2-1.1c0.5-0.2,1.3-0.5,2.1-0.6c1.3-0.2,2.1-0.5,2.6-0.7v-0.3c0-0.5-0.1-0.9-0.4-1.1c-0.3-0.2-0.8-0.3-1.5-0.3
		c-0.5,0-0.9,0.1-1.2,0.3C455.1,27.3,454.8,27.7,454.7,28.2z M458.3,30.3c-0.4,0.1-0.9,0.3-1.6,0.4c-0.8,0.2-1.3,0.3-1.5,0.5
		c-0.4,0.3-0.5,0.6-0.5,1c0,0.4,0.1,0.7,0.4,1c0.3,0.3,0.7,0.4,1.1,0.4c0.5,0,1-0.2,1.4-0.5c0.3-0.3,0.6-0.6,0.7-0.9
		c0.1-0.2,0.1-0.7,0.1-1.4V30.3z"/>
	<path d="M468.2,25.1v2.1h-1.8v4.1c0,0.9,0,1.4,0.1,1.5c0,0.1,0.1,0.3,0.2,0.4c0.1,0.1,0.3,0.1,0.5,0.1c0.3,0,0.6-0.1,1.1-0.3
		l0.2,2.1c-0.6,0.3-1.4,0.4-2.1,0.4c-0.5,0-1-0.1-1.4-0.3c-0.4-0.2-0.7-0.4-0.9-0.7c-0.2-0.3-0.3-0.6-0.4-1.1
		c-0.1-0.3-0.1-1-0.1-1.9V27h-1.3v-2.1h1.3v-2l2.7-1.5v3.6h1.9V25.1z"/>
	<path d="M470.1,23.7v-2.5h2.7v2.5H470.1z M470.1,35.3V25.1h2.7v10.2H470.1z"/>
	<path d="M474.9,30c0-0.9,0.2-1.7,0.7-2.6c0.5-0.9,1.1-1.5,1.8-1.9c0.8-0.5,1.7-0.7,2.7-0.7c1.5,0,2.8,0.5,3.8,1.5
		c1,1,1.5,2.2,1.5,3.8c0,1.5-0.5,2.8-1.5,3.9c-1,1-2.2,1.5-3.8,1.5c-1,0-1.8-0.2-2.7-0.7c-0.9-0.4-1.5-1.1-1.9-1.8
		C475.1,32.2,474.9,31.2,474.9,30z M477.7,30.1c0,1,0.2,1.7,0.7,2.3c0.5,0.6,1.1,0.8,1.7,0.8s1.3-0.3,1.7-0.8
		c0.5-0.6,0.7-1.4,0.7-2.3s-0.2-1.7-0.7-2.3c-0.5-0.6-1.1-0.8-1.7-0.8c-0.7,0-1.3,0.3-1.7,0.8C477.9,28.4,477.7,29.2,477.7,30.1z"/>
	<path d="M496.8,35.3h-2.7V30c0-1.1-0.1-1.8-0.2-2.1c-0.1-0.3-0.3-0.6-0.6-0.8c-0.3-0.2-0.6-0.3-1-0.3c-0.5,0-0.9,0.1-1.3,0.4
		c-0.4,0.3-0.6,0.6-0.8,1.1c-0.1,0.4-0.2,1.2-0.2,2.3v4.6h-2.7V25.1h2.5v1.5c0.9-1.2,2-1.7,3.4-1.7c0.6,0,1.2,0.1,1.6,0.3
		c0.5,0.2,0.9,0.5,1.2,0.8c0.3,0.3,0.4,0.7,0.5,1.2c0.1,0.4,0.2,1.1,0.2,1.8L496.8,35.3L496.8,35.3z"/>
	<path d="M504.4,28.3c0-1.5,0.2-2.6,0.7-3.6c0.3-0.7,0.8-1.4,1.4-1.9c0.6-0.6,1.2-1,1.8-1.3c0.9-0.4,1.8-0.6,3-0.6
		c2,0,3.8,0.7,4.9,1.9c1.3,1.3,1.8,3.1,1.8,5.3s-0.6,4.1-1.8,5.3c-1.3,1.3-2.9,1.9-4.9,1.9c-2.1,0-3.8-0.7-5-1.9
		C505,32.3,504.4,30.5,504.4,28.3z M507.3,28.2c0,1.5,0.4,2.8,1.1,3.6c0.8,0.8,1.6,1.3,2.8,1.3c1.2,0,2-0.4,2.8-1.3
		c0.7-0.8,1.1-2,1.1-3.7c0-1.6-0.4-2.8-1.1-3.6c-0.7-0.8-1.6-1.2-2.8-1.2c-1.2,0-2.1,0.4-2.8,1.2C507.7,25.4,507.3,26.6,507.3,28.2z
		"/>
	<path d="M519.1,25.1h1.5v-0.8c0-0.9,0.1-1.5,0.3-1.9c0.2-0.4,0.5-0.8,1-1.1s1.1-0.4,1.8-0.4s1.5,0.1,2.2,0.4l-0.4,1.8
		c-0.4-0.1-0.9-0.2-1.3-0.2s-0.7,0.1-0.9,0.3c-0.2,0.2-0.3,0.5-0.3,1.1V25h2v2.1h-2v8h-2.7v-8h-1.5v-2H519.1z"/>
	<path d="M525.6,25.1h1.5v-0.8c0-0.9,0.1-1.5,0.3-1.9c0.2-0.4,0.5-0.8,1-1.1c0.5-0.3,1.1-0.4,1.8-0.4s1.5,0.1,2.2,0.4l-0.4,1.8
		c-0.4-0.1-0.9-0.2-1.3-0.2c-0.4,0-0.7,0.1-0.9,0.3c-0.2,0.2-0.3,0.5-0.3,1.1V25h2v2.1h-2v8h-2.7v-8h-1.5v-2H525.6z"/>
	<path d="M533.4,23.7v-2.5h2.7v2.5H533.4z M533.4,35.3V25.1h2.7v10.2H533.4z"/>
	<path d="M547.7,28.1l-2.6,0.5c-0.1-0.5-0.3-1-0.6-1.2c-0.3-0.3-0.8-0.4-1.3-0.4c-0.7,0-1.2,0.2-1.6,0.7c-0.4,0.5-0.6,1.3-0.6,2.3
		c0,1.2,0.2,2,0.6,2.5c0.4,0.5,1,0.8,1.6,0.8c0.5,0,1-0.2,1.3-0.5c0.3-0.3,0.6-0.8,0.7-1.5l2.6,0.5c-0.3,1.3-0.8,2.1-1.5,2.7
		c-0.8,0.6-1.8,1-3.1,1c-1.5,0-2.7-0.5-3.6-1.5c-0.9-1-1.4-2.2-1.4-3.9s0.5-3,1.4-4c0.9-1,2.1-1.5,3.6-1.5c1.3,0,2.2,0.3,3,0.8
		C546.8,26.2,547.4,26.9,547.7,28.1z"/>
	<path d="M555.7,32l2.7,0.5c-0.4,1-0.9,1.7-1.6,2.2c-0.8,0.5-1.6,0.8-2.8,0.8c-1.7,0-3.1-0.6-4-1.7c-0.7-1-1-2.1-1-3.5
		c0-1.6,0.5-3,1.4-4c0.9-1,2-1.5,3.4-1.5c1.5,0,2.7,0.5,3.6,1.5c0.9,1,1.3,2.5,1.3,4.6h-6.8c0,0.8,0.2,1.5,0.7,1.8
		c0.4,0.5,1,0.7,1.5,0.7c0.4,0,0.8-0.1,1.1-0.4C555.3,32.9,555.5,32.6,555.7,32z M555.8,29.3c0-0.8-0.2-1.4-0.6-1.7
		c-0.4-0.4-0.9-0.6-1.4-0.6c-0.6,0-1.1,0.2-1.5,0.7c-0.4,0.4-0.6,1-0.6,1.7L555.8,29.3L555.8,29.3z"/>
	<path d="M563.2,35.3h-2.6V25.1h2.5v1.5c0.4-0.7,0.8-1.2,1.2-1.4c0.4-0.2,0.8-0.3,1.2-0.3c0.6,0,1.2,0.2,1.7,0.5l-0.9,2.3
		c-0.5-0.3-0.9-0.5-1.3-0.5c-0.4,0-0.7,0.1-1,0.3c-0.3,0.2-0.5,0.6-0.6,1.2c-0.2,0.6-0.2,1.6-0.2,3.4L563.2,35.3L563.2,35.3z"/>
</g>
</svg>
